<svg width="66" height="66" viewBox="0 0 66 66" fill="none" xmlns="http://www.w3.org/2000/svg">
<path d="M50.875 53.625H39.875M45.375 59.125V48.125M32.9725 59.9775C27.9675 59.9775 22.99 58.7125 19.195 56.1825C12.54 51.7275 12.54 44.4675 19.195 40.04C26.7575 34.98 39.16 34.98 46.7225 40.04M33.44 29.8925C33.165 29.865 32.835 29.865 32.5325 29.8925C29.376 29.7853 26.3853 28.4538 24.1935 26.1799C22.0017 23.906 20.781 20.8682 20.79 17.71C20.7856 16.1077 21.0976 14.5202 21.7079 13.0387C22.3183 11.5571 23.215 10.2106 24.3468 9.07627C25.4786 7.94196 26.8231 7.04218 28.3032 6.42849C29.7834 5.8148 31.3701 5.49927 32.9725 5.5C39.71 5.5 45.1825 10.9725 45.1825 17.71C45.1825 24.31 39.9575 29.6725 33.44 29.8925V29.8925Z" stroke="white" stroke-width="1.5" stroke-linecap="round" stroke-linejoin="round"/>
</svg>
