<svg width="66" height="66" viewBox="0 0 66 66" fill="none" xmlns="http://www.w3.org/2000/svg">
<path d="M48.235 22.8523C50.0292 22.8523 51.7499 22.1395 53.0186 20.8708C54.2873 19.6022 55 17.8815 55 16.0873C55 14.2931 54.2873 12.5724 53.0186 11.3037C51.7499 10.035 50.0292 9.32227 48.235 9.32227C46.4408 9.32227 44.7201 10.035 43.4514 11.3037C42.1827 12.5724 41.47 14.2931 41.47 16.0873C41.47 17.8815 42.1827 19.6022 43.4514 20.8708C44.7201 22.1395 46.4408 22.8523 48.235 22.8523V22.8523ZM17.765 22.8523C19.5592 22.8523 21.2799 22.1395 22.5486 20.8708C23.8173 19.6022 24.53 17.8815 24.53 16.0873C24.53 14.2931 23.8173 12.5724 22.5486 11.3037C21.2799 10.035 19.5592 9.32227 17.765 9.32227C15.9708 9.32227 14.2501 10.035 12.9814 11.3037C11.7127 12.5724 11 14.2931 11 16.0873C11 17.8815 11.7127 19.6022 12.9814 20.8708C14.2501 22.1395 15.9708 22.8523 17.765 22.8523V22.8523ZM48.235 56.6773C49.1234 56.6773 50.0031 56.5023 50.8239 56.1623C51.6446 55.8223 52.3904 55.324 53.0186 54.6958C53.6468 54.0677 54.1451 53.3219 54.485 52.5011C54.825 51.6804 55 50.8007 55 49.9123C55 49.0239 54.825 48.1442 54.485 47.3234C54.1451 46.5026 53.6468 45.7569 53.0186 45.1287C52.3904 44.5005 51.6446 44.0022 50.8239 43.6622C50.0031 43.3222 49.1234 43.1473 48.235 43.1473C46.4408 43.1473 44.7201 43.86 43.4514 45.1287C42.1827 46.3974 41.47 48.1181 41.47 49.9123C41.47 51.7065 42.1827 53.4272 43.4514 54.6958C44.7201 55.9645 46.4408 56.6773 48.235 56.6773V56.6773ZM17.765 56.6773C18.6534 56.6773 19.5331 56.5023 20.3539 56.1623C21.1746 55.8223 21.9204 55.324 22.5486 54.6958C23.1768 54.0677 23.6751 53.3219 24.015 52.5011C24.355 51.6804 24.53 50.8007 24.53 49.9123C24.53 49.0239 24.355 48.1442 24.015 47.3234C23.6751 46.5026 23.1768 45.7569 22.5486 45.1287C21.9204 44.5005 21.1746 44.0022 20.3539 43.6622C19.5331 43.3222 18.6534 43.1473 17.765 43.1473C15.9708 43.1473 14.2501 43.86 12.9814 45.1287C11.7127 46.3974 11 48.1181 11 49.9123C11 51.7065 11.7127 53.4272 12.9814 54.6958C14.2501 55.9645 15.9708 56.6773 17.765 56.6773V56.6773Z" stroke="white" stroke-width="1.5" stroke-miterlimit="10" stroke-linecap="round" stroke-linejoin="round"/>
</svg>
