<svg width="66" height="66" viewBox="0 0 66 66" fill="none" xmlns="http://www.w3.org/2000/svg">
<path d="M26.125 37.8125C26.125 40.48 28.1875 42.625 30.7175 42.625H35.8875C38.0875 42.625 39.875 40.755 39.875 38.4175C39.875 35.915 38.775 35.0075 37.1525 34.43L28.875 31.5425C27.2525 30.965 26.1525 30.085 26.1525 27.555C26.1525 25.245 27.94 23.3475 30.14 23.3475H35.31C37.84 23.3475 39.9025 25.4925 39.9025 28.16M33 20.625V45.375" stroke="white" stroke-width="1.5" stroke-linecap="round" stroke-linejoin="round"/>
<path d="M60.5 33C60.5 48.18 48.18 60.5 33 60.5C17.82 60.5 5.5 48.18 5.5 33C5.5 17.82 17.82 5.5 33 5.5M60.5 16.5V5.5H49.5M46.75 19.25L60.5 5.5" stroke="white" stroke-width="1.5" stroke-linecap="round" stroke-linejoin="round"/>
</svg>
