<svg width="2112" height="1070" viewBox="0 0 2112 1070" fill="none" xmlns="http://www.w3.org/2000/svg">
<g style="mix-blend-mode:overlay">
<path d="M0 267.5C33.5 267.5 158.3 267.5 389.5 267.5H1586.5V664.5H500.5V1068C500.5 1068 1041.39 1068.6 1426.5 1068.66C1651.6 1068.7 2079.5 1068.66 1803 1068C2029.4 1068.53 2103.33 1068.66 2112 1068.66" stroke="white" stroke-width="2"/>
</g>
<g style="mix-blend-mode:overlay">
<path d="M0 267.5C33.5 267.5 158.3 267.5 389.5 267.5H1586.5V664.5H500.5V1068C500.5 1068 1041.39 1068.6 1426.5 1068.66C1651.6 1068.7 2079.5 1068.66 1803 1068C2029.4 1068.53 2103.33 1068.66 2112 1068.66" stroke="white" stroke-width="2"/>
</g>
<g style="mix-blend-mode:overlay">
<path d="M0 267.5C33.5 267.5 158.3 267.5 389.5 267.5H1586.5V664.5H500.5V1068C500.5 1068 1041.39 1068.6 1426.5 1068.66C1651.6 1068.7 2079.5 1068.66 1803 1068C2029.4 1068.53 2103.33 1068.66 2112 1068.66" stroke="white" stroke-width="2"/>
</g>
<g style="mix-blend-mode:overlay">
<path d="M429.5 0C429.5 0 429.5 285.5 429.5 266.5" stroke="white" stroke-width="2"/>
</g>
<g style="mix-blend-mode:overlay">
<path d="M950.5 0C950.5 0 950.5 285.5 950.5 266.5" stroke="white" stroke-width="2"/>
</g>
<g style="mix-blend-mode:overlay">
<path d="M1381.5 0C1381.5 0 1381.5 285.5 1381.5 266.5" stroke="white" stroke-width="2"/>
</g>
<g style="mix-blend-mode:overlay">
<path d="M1217.5 395C1217.5 395 1217.5 680.5 1217.5 661.5" stroke="white" stroke-width="2"/>
</g>
<g style="mix-blend-mode:overlay">
<path d="M895.5 395C895.5 395 895.5 680.5 895.5 661.5" stroke="white" stroke-width="2"/>
</g>
<g style="mix-blend-mode:overlay">
<path d="M543.5 395C543.5 395 543.5 680.5 543.5 661.5" stroke="white" stroke-width="2"/>
</g>
<g style="mix-blend-mode:overlay">
<path d="M647.5 800C647.5 800 647.5 1085.5 647.5 1066.5" stroke="white" stroke-width="2"/>
</g>
<g style="mix-blend-mode:overlay">
<path d="M1017.5 800C1017.5 800 1017.5 1085.5 1017.5 1066.5" stroke="white" stroke-width="2"/>
</g>
<g style="mix-blend-mode:overlay">
<path d="M1381.5 800C1381.5 800 1381.5 1085.5 1381.5 1066.5" stroke="white" stroke-width="2"/>
</g>
<g style="mix-blend-mode:overlay">
<path d="M429.5 0C429.5 0 429.5 285.5 429.5 266.5" stroke="white" stroke-width="2"/>
</g>
<g style="mix-blend-mode:overlay">
<path d="M950.5 0C950.5 0 950.5 285.5 950.5 266.5" stroke="white" stroke-width="2"/>
</g>
<g style="mix-blend-mode:overlay">
<path d="M1381.5 0C1381.5 0 1381.5 285.5 1381.5 266.5" stroke="white" stroke-width="2"/>
</g>
<g style="mix-blend-mode:overlay">
<path d="M1217.5 395C1217.5 395 1217.5 680.5 1217.5 661.5" stroke="white" stroke-width="2"/>
</g>
<g style="mix-blend-mode:overlay">
<path d="M895.5 395C895.5 395 895.5 680.5 895.5 661.5" stroke="white" stroke-width="2"/>
</g>
<g style="mix-blend-mode:overlay">
<path d="M543.5 395C543.5 395 543.5 680.5 543.5 661.5" stroke="white" stroke-width="2"/>
</g>
<g style="mix-blend-mode:overlay">
<path d="M647.5 800C647.5 800 647.5 1085.5 647.5 1066.5" stroke="white" stroke-width="2"/>
</g>
<g style="mix-blend-mode:overlay">
<path d="M1017.5 800C1017.5 800 1017.5 1085.5 1017.5 1066.5" stroke="white" stroke-width="2"/>
</g>
<g style="mix-blend-mode:overlay">
<path d="M1381.5 800C1381.5 800 1381.5 1085.5 1381.5 1066.5" stroke="white" stroke-width="2"/>
</g>
<g style="mix-blend-mode:overlay">
<path d="M429.5 0C429.5 0 429.5 285.5 429.5 266.5" stroke="white" stroke-width="2"/>
</g>
<g style="mix-blend-mode:overlay">
<path d="M950.5 0C950.5 0 950.5 285.5 950.5 266.5" stroke="white" stroke-width="2"/>
</g>
<g style="mix-blend-mode:overlay">
<path d="M1381.5 0C1381.5 0 1381.5 285.5 1381.5 266.5" stroke="white" stroke-width="2"/>
</g>
<g style="mix-blend-mode:overlay">
<path d="M1217.5 395C1217.5 395 1217.5 680.5 1217.5 661.5" stroke="white" stroke-width="2"/>
</g>
<g style="mix-blend-mode:overlay">
<path d="M895.5 395C895.5 395 895.5 680.5 895.5 661.5" stroke="white" stroke-width="2"/>
</g>
<g style="mix-blend-mode:overlay">
<path d="M543.5 395C543.5 395 543.5 680.5 543.5 661.5" stroke="white" stroke-width="2"/>
</g>
<g style="mix-blend-mode:overlay">
<path d="M647.5 800C647.5 800 647.5 1085.5 647.5 1066.5" stroke="white" stroke-width="2"/>
</g>
<g style="mix-blend-mode:overlay">
<path d="M1017.5 800C1017.5 800 1017.5 1085.5 1017.5 1066.5" stroke="white" stroke-width="2"/>
</g>
<g style="mix-blend-mode:overlay">
<path d="M1381.5 800C1381.5 800 1381.5 1085.5 1381.5 1066.5" stroke="white" stroke-width="2"/>
</g>
</svg>
