<svg width="16" height="12" viewBox="0 0 16 12" fill="none" xmlns="http://www.w3.org/2000/svg">
    <path d="M15.4282 1.96709C15.2504 1.30616 14.7293 0.78515 14.0685 0.607181C12.8612 0.276855 8.03205 0.276855 8.03205 0.276855C8.03205 0.276855 3.20306 0.276855 1.99579 0.594658C1.34766 0.772438 0.813848 1.30625 0.636067 1.96709C0.318359 3.17427 0.318359 5.6778 0.318359 5.6778C0.318359 5.6778 0.318359 8.19394 0.636067 9.3885C0.814036 10.0493 1.33495 10.5703 1.99588 10.7483C3.21577 11.0787 8.03224 11.0787 8.03224 11.0787C8.03224 11.0787 12.8612 11.0787 14.0685 10.7609C14.7294 10.5831 15.2504 10.0621 15.4284 9.40121C15.746 8.19394 15.746 5.69051 15.746 5.69051C15.746 5.69051 15.7587 3.17427 15.4282 1.96709ZM6.49455 7.99064V3.36495L10.5102 5.6778L6.49455 7.99064Z" fill="#A7A4A4" />
</svg>