<svg width="60" height="55" viewBox="0 0 60 55" fill="none" xmlns="http://www.w3.org/2000/svg">
    <path d="M4.2308 27.5035C4.23017 23.4186 5.30488 19.4055 7.34692 15.8677C9.38896 12.3298 12.3264 9.39182 15.8638 7.34909C19.4013 5.30636 23.4142 4.23086 27.4991 4.2307C31.584 4.23054 35.597 5.30573 39.1346 7.34818C39.6202 7.62427 40.1953 7.69708 40.7344 7.55072C41.2735 7.40437 41.7328 7.05072 42.0121 6.56696C42.2914 6.0832 42.3681 5.50859 42.2253 4.96855C42.0825 4.4285 41.7319 3.96685 41.25 3.68434C36.0075 0.657569 29.9128 -0.554801 23.911 0.235247C17.9092 1.0253 12.3359 3.77361 8.05522 8.05397C3.77459 12.3343 1.02591 17.9075 0.235478 23.9092C-0.554956 29.9109 0.657024 36.0058 3.68345 41.2485C6.70989 46.4912 11.3816 50.5888 16.9742 52.9058C22.5667 55.2229 28.7676 55.6298 34.615 54.0636C40.4624 52.4974 45.6296 49.0456 49.3153 44.2434C53.001 39.4412 54.9992 33.5571 55 27.5035C55 26.9425 54.7771 26.4045 54.3804 26.0077C53.9837 25.611 53.4457 25.3882 52.8846 25.3882C52.3236 25.3882 51.7855 25.611 51.3888 26.0077C50.9921 26.4045 50.7692 26.9425 50.7692 27.5035C50.7692 33.6749 48.3177 39.5935 43.9538 43.9574C39.59 48.3212 33.6714 50.7728 27.5 50.7728C21.3286 50.7728 15.41 48.3212 11.0462 43.9574C6.68238 39.5935 4.2308 33.6749 4.2308 27.5035Z" fill="#00E0FF" />
    <path d="M59.3736 7.63149C59.5722 7.43396 59.7297 7.19945 59.8372 6.94135C59.9447 6.68326 60 6.40664 60 6.12728C60 5.84792 59.9447 5.5713 59.8372 5.3132C59.7297 5.05511 59.5722 4.8206 59.3736 4.62306C59.1749 4.42553 58.9392 4.26884 58.6797 4.16193C58.4202 4.05502 58.1421 4 57.8612 4C57.5803 4 57.3022 4.05502 57.0427 4.16193C56.7832 4.26884 56.5474 4.42553 56.3488 4.62306L27.9555 32.8674L16.6512 21.6198C16.4526 21.4223 16.2168 21.2656 15.9573 21.1587C15.6978 21.0518 15.4197 20.9968 15.1388 20.9968C14.8579 20.9968 14.5798 21.0518 14.3203 21.1587C14.0608 21.2656 13.8251 21.4223 13.6264 21.6198C13.4278 21.8174 13.2703 22.0519 13.1628 22.31C13.0553 22.5681 13 22.8447 13 23.124C13 23.4034 13.0553 23.68 13.1628 23.9381C13.2703 24.1962 13.4278 24.4307 13.6264 24.6283L26.4432 37.3758C26.6416 37.5737 26.8773 37.7307 27.1368 37.8378C27.3963 37.9449 27.6746 38 27.9555 38C28.2365 38 28.5147 37.9449 28.7742 37.8378C29.0337 37.7307 29.2695 37.5737 29.4679 37.3758L59.3736 7.63149Z" fill="#00E0FF" />
</svg>