<svg width="1102" height="1126" viewBox="0 0 1102 1126" fill="none" xmlns="http://www.w3.org/2000/svg">
<g opacity="0.22">
<path d="M806.578 991.161L800.226 994.595C796.158 996.72 790.44 999.951 783.433 1003.5L772.019 1008.97C767.928 1010.89 763.702 1013.08 759.136 1014.89C750.095 1018.66 740.444 1022.91 730.5 1026.19C712.448 1032.85 694.027 1038.46 675.328 1043C671.531 1044.06 667.983 1044.69 664.864 1045.37L656.749 1047.07L649.675 1048.54" stroke="#5FC6FF" stroke-width="0.46" stroke-miterlimit="10"/>
<path d="M513.589 1052.56L510.199 1052.26C507.938 1052.06 504.751 1051.86 500.638 1051.38L485.834 1049.37L476.793 1048.11L466.78 1046.23C459.819 1044.92 452.225 1043.63 444.359 1041.58C436.494 1039.52 428.063 1037.85 419.61 1035.16L406.637 1031.36C402.252 1030.1 397.935 1028.4 393.527 1026.84L380.26 1022.21L367.128 1016.88C362.766 1015.05 358.314 1013.42 354.042 1011.41L341.317 1005.46C332.796 1001.69 324.795 997.194 316.952 993.081L311.121 989.986C309.2 988.946 307.392 987.726 305.538 986.709L294.802 980.291C287.728 976.269 281.49 971.749 275.545 967.885C272.607 965.896 269.759 964.043 267.092 962.19L259.724 956.722L247.745 947.818L237.687 939.548" stroke="#5FC6FF" stroke-width="0.46" stroke-miterlimit="10"/>
<path d="M688.912 1019.61L681.612 1021.51L673.226 1023.77L668.073 1025.1C666.242 1025.58 664.298 1025.92 662.287 1026.35C654.218 1027.97 644.883 1030.23 634.667 1031.66C629.582 1032.4 624.361 1033.4 618.982 1034.03L602.708 1035.84C597.261 1036.56 591.769 1036.67 586.367 1037.06L578.366 1037.55L574.433 1037.78H570.546C560.239 1037.78 550.633 1038.23 542.406 1037.78C534.179 1037.33 527.331 1037.4 522.539 1036.83L515.035 1036.18" stroke="#5FC6FF" stroke-width="0.46" stroke-miterlimit="10"/>
<path d="M905.009 890.804L897.256 898.51L893.165 902.578L890.905 904.838L888.283 907.097L876.214 918.012C873.954 920.046 871.693 922.012 869.139 924.046L861.41 930.328C858.743 932.452 856.121 934.847 853.205 936.904L844.345 943.457C841.317 945.717 838.333 947.976 835.169 950.236L825.495 956.699C822.218 958.846 818.986 961.219 815.618 963.207L805.402 969.331C801.989 971.342 798.622 973.512 795.141 975.387L784.744 980.969C781.263 982.777 777.963 984.743 774.438 986.392L764.199 991.274C760.809 992.855 757.418 994.505 754.254 995.951L744.558 1000.02L735.381 1003.86C732.421 1005.13 729.46 1006.12 726.657 1007.11L711.356 1012.67L699.376 1016.4L691.647 1018.8C689.884 1019.36 688.912 1019.61 688.912 1019.61" stroke="#5FC6FF" stroke-width="0.46" stroke-miterlimit="10"/>
<path d="M938.527 911.007L936.448 913.267C935.137 914.803 932.967 916.814 930.323 919.481C924.966 924.746 917.575 932.52 907.857 940.994C903.065 945.287 897.98 950.033 892.171 954.552L883.379 961.739L878.858 965.445L874.067 969.015L864.212 976.291C860.89 978.777 857.432 981.263 853.974 983.545L843.373 990.641L838.017 994.189C836.231 995.364 834.355 996.449 832.524 997.533C805.736 1014.1 777.55 1028.29 748.287 1039.95L731.788 1045.98L725.007 1048.49C722.747 1049.21 720.871 1049.8 719.085 1050.37L707.784 1053.87" stroke="#5FC6FF" stroke-width="0.46" stroke-miterlimit="10"/>
<path d="M536.484 1025.83L533.704 1025.71C531.874 1025.6 529.184 1025.71 525.816 1025.33L513.634 1024.27L506.108 1023.63C503.486 1023.38 500.728 1022.93 497.835 1022.55C492.072 1021.71 485.811 1021.06 479.234 1019.9L458.621 1016.04L436.787 1010.8C429.442 1008.76 422.006 1006.48 414.547 1004.31C407.088 1002.14 399.878 999.251 392.646 996.765L389.934 995.816L387.312 994.754L382.068 992.607L371.807 988.426C370.112 987.726 368.417 987.093 366.789 986.37L361.975 984.11L352.686 979.749C349.68 978.303 346.674 977.037 343.916 975.568L335.802 971.297C330.671 968.518 325.857 966.19 321.811 963.75L311.302 957.468L304.521 953.423C303.737 952.971 303.15 952.609 302.758 952.338L302.17 951.931" stroke="#5FC6FF" stroke-width="0.46" stroke-miterlimit="10"/>
<path d="M683.013 1060.6C683.013 1060.6 680.165 1061.37 675.125 1062.61L654.105 1067C649.788 1067.97 645.064 1068.53 639.979 1069.39C634.893 1070.25 629.672 1071.13 624.157 1071.79C613.105 1072.96 601.352 1074.57 589.509 1075.04L580.649 1075.59L576.241 1075.86H571.857L554.747 1076.06L550.52 1076.11L546.475 1075.97L538.632 1075.7L524.302 1075.13L502.898 1073.3C500.321 1073.1 498.378 1072.87 496.931 1072.67L494.807 1072.38" stroke="#5FC6FF" stroke-width="0.46" stroke-miterlimit="10"/>
<path d="M733.212 983.635L726.431 986.438L708.485 992.968L705.637 994.008L702.631 994.934L696.325 996.9C691.986 998.211 687.465 999.748 682.764 1001.06C673.181 1003.45 663.055 1006.44 652.681 1008.36L644.974 1009.96L641.109 1010.78L637.267 1011.41L622.214 1013.8L618.597 1014.37L615.004 1014.78L608.087 1015.52C603.567 1016 599.34 1016.54 595.408 1016.88L576.332 1018.05C574.072 1018.23 572.241 1018.23 570.998 1018.23H569.099" stroke="#5FC6FF" stroke-width="0.46" stroke-miterlimit="10"/>
<path d="M325.699 1042.21C325.699 1042.21 335.282 1039.84 344.549 1037.31C353.816 1034.77 363.038 1031.47 363.038 1031.47L367.061 1033.1L371.581 1034.98C373.367 1035.72 375.378 1036.51 377.616 1037.24L392.849 1042.57C395.675 1043.5 398.5 1044.65 401.483 1045.46L410.524 1048.13L419.565 1050.77L424.085 1052.08C425.554 1052.47 427.024 1052.78 428.448 1053.15L444.156 1056.92C446.416 1057.46 448.563 1058 450.439 1058.39L455.321 1059.29L459.593 1060.11C459.593 1060.11 464.904 1066.7 470.532 1073.35C473.312 1076.74 476.228 1079.79 478.42 1082.21L482.105 1086.18L487.461 1086.93L493.631 1087.74L497.429 1088.26L501.655 1088.65L521.771 1090.39C529.139 1090.88 537.027 1091.02 544.915 1091.34L550.814 1091.54H556.668L567.969 1091.4C571.653 1091.4 575.224 1091.4 578.615 1091.16L588.13 1090.57L602.505 1089.66L607.884 1089.1" stroke="#5FC6FF" stroke-width="0.46" stroke-miterlimit="10"/>
<path d="M612.902 995.296L601.194 996.584L595.521 997.217C593.486 997.42 591.362 997.488 589.147 997.623L575.337 998.482C570.636 998.776 565.912 998.64 561.505 998.753C557.097 998.866 552.961 998.979 549.435 998.753L537.66 998.324L533.84 994.211C532.733 992.968 531.422 991.545 529.998 990.008L525.658 985.014C519.849 978.122 514.357 971.297 514.357 971.297L511.329 971.049C509.34 970.868 506.447 970.393 502.762 969.896L489.472 968.088L472.363 964.857C469.199 964.382 465.989 963.433 462.644 962.597L452.292 960.134C448.699 959.388 445.15 958.145 441.443 957.106L430.142 953.807C426.323 952.632 422.526 951.163 418.616 949.852C414.705 948.541 410.773 947.231 406.885 945.672L395.132 940.858L389.21 938.463C387.221 937.649 385.323 936.678 383.379 935.796L371.807 930.373L368.914 929.04L366.111 927.548L360.664 924.701L349.634 918.871L339.215 912.611L334.107 909.583L331.598 908.092L329.202 906.465L319.981 900.137C313.788 896.251 308.409 891.867 303.255 888.138C298.102 884.409 293.604 880.636 289.694 877.336L283.818 872.726L281.331 870.67L279.071 868.681L270.437 860.817L266.731 861.043L262.436 861.269L256.967 861.405C252.943 861.405 248.197 861.405 243.044 861.405C237.891 861.405 232.24 861.405 226.816 860.976C221.391 860.546 215.763 860.275 210.474 859.823C205.186 859.371 200.168 858.964 196.032 858.354C187.647 857.27 181.928 856.366 181.928 856.366" stroke="#5FC6FF" stroke-width="0.46" stroke-miterlimit="10"/>
<path d="M700.665 968.292L705.908 966.394C709.208 965.106 714.045 963.569 719.673 961.241C725.301 958.914 731.855 956.247 738.772 953.129L749.349 948.067L754.796 945.491C756.627 944.632 758.368 943.593 760.176 942.666C767.273 938.779 774.55 935.164 780.969 931.074L790.372 925.447C793.4 923.752 796.022 921.741 798.576 920.114C803.617 916.724 807.866 913.967 810.781 911.933L815.302 908.611C815.302 908.611 823.687 909.922 832.366 911.007C836.728 911.617 840.955 911.911 844.21 912.204L849.657 912.611L859.443 904.634L869.072 895.934C872.575 892.748 876.417 889.471 879.921 885.81L890.453 875.325C893.843 872.003 896.669 868.546 899.268 865.834L907.766 856.479C907.766 856.479 920.536 855.055 933.826 853.021L938.799 852.253L943.5 851.372L951.908 849.677L960.203 847.914L963.005 844.14C964.859 841.881 967.187 838.175 970.057 833.904C972.927 829.633 976.295 824.684 979.753 819.26L990.082 801.996C991.89 799.081 993.45 796.03 995.032 792.957L999.688 784.211L1004.01 776.009L1007.53 768.506C1011.87 759.196 1014.79 752.982 1014.79 752.982" stroke="#5FC6FF" stroke-width="0.46" stroke-miterlimit="10"/>
<path d="M1040.46 774.472C1040.46 774.472 1037.86 779.986 1034 788.256C1032.1 792.414 1029.48 797.024 1026.81 802.109L1022.7 809.882C1021.27 812.526 1019.87 815.216 1018.18 817.814C1011.92 828.254 1005.81 838.83 1000.55 846.31L992.071 858.965L992.207 860.637C992.207 861.676 992.365 863.168 992.478 864.953C992.636 868.568 992.862 873.404 993.088 878.24C993.315 883.076 993.405 888.07 993.518 891.799C993.631 895.527 993.518 897.968 993.518 897.968L988.365 904.25L982.443 911.459C980.183 914.216 977.629 917.402 974.578 920.633C960.265 936.894 944.997 952.287 928.854 966.733C920.22 974.823 910.931 982.122 902.364 989.149C898.138 992.72 893.708 995.748 889.685 998.821L878.158 1007.3C870.88 1012.31 864.597 1016.33 860.415 1019.23L855.646 1022.5C854.471 1023.25 853.838 1023.61 853.838 1023.61" stroke="#5FC6FF" stroke-width="0.46" stroke-miterlimit="10"/>
<path d="M963.548 748.982L962.305 751.626L960.881 754.676L958.847 758.518L953.739 768.145C951.863 771.647 949.964 775.466 947.681 779.059L941.285 789.77L938.347 794.697L935.476 798.99L929.577 807.803L921.44 809.453C916.513 810.357 909.823 811.351 903.359 812.255C896.895 813.159 890.566 814.018 885.594 814.334L877.48 814.944L875.016 817.95C873.411 819.803 871.332 822.65 868.462 825.768L858.743 836.435C857.839 837.406 856.957 838.446 856.008 839.417L853.092 842.31L847.125 848.231C845.091 850.219 843.17 852.276 841.136 854.151L835.056 859.597C831.101 863.077 827.597 866.58 824.23 869.133L813.313 878.172" stroke="#5FC6FF" stroke-width="0.46" stroke-miterlimit="10"/>
<path d="M301.899 1002.1L293.514 997.013L284.903 991.861L280.066 988.946L275.207 985.715C268.72 981.331 262.143 977.105 257.374 973.693L249.531 967.862L240.038 968.427C237.168 968.563 233.777 968.766 230.184 968.879H218.883C211.175 968.879 203.332 968.766 197.388 968.608C191.444 968.45 187.624 968.043 187.624 968.043L174.199 955.818C170.243 952.089 165.836 947.525 160.999 942.711L153.608 935.277L146.353 927.255L139.166 919.345L135.617 915.391L132.385 911.391L120.609 896.996C118.869 894.917 117.377 892.906 116.089 891.121L112.699 886.601L109.715 882.602" stroke="#5FC6FF" stroke-width="0.46" stroke-miterlimit="10"/>
<path d="M798.802 1040.33L780.721 1048.9C769.759 1053.6 755.135 1059.99 740.037 1065.17C736.285 1066.5 732.579 1067.97 728.736 1069.15L717.752 1072.58L707.468 1075.77C704.191 1076.78 701.049 1077.48 698.156 1078.27L684.188 1081.89L680.255 1082.91L678.854 1083.2C678.854 1083.2 671.847 1091.97 664.321 1100.8L659.009 1107.29L653.992 1112.74L649.019 1118.05L644.047 1118.84C640.883 1119.31 636.385 1120.15 630.938 1120.8C619.999 1121.98 605.466 1123.9 590.819 1124.53L579.903 1125.19C576.309 1125.41 572.761 1125.35 569.325 1125.44L550.543 1125.64L532.235 1125.03" stroke="#5FC6FF" stroke-width="0.46" stroke-miterlimit="10"/>
<path d="M52.6453 550.01C52.6453 550.01 52.6453 549.354 52.6453 548.134C52.6453 546.914 52.6453 545.083 52.6453 542.801C52.8261 538.281 53.0521 531.66 53.3459 523.796C53.6397 515.932 54.7472 506.78 55.6061 496.995C56.2616 492.114 56.9396 487.075 57.6403 481.968C58.0019 479.392 58.3409 476.816 58.7026 474.24C59.0642 471.664 59.6292 469.065 60.0813 466.489C61.0532 461.336 62.025 456.184 62.9743 451.1C63.4038 448.546 64.014 446.06 64.6243 443.597C65.2345 441.134 65.777 438.716 66.3646 436.321C67.5399 431.553 68.6248 426.898 69.7323 422.536L73.3034 410.356C74.4109 406.582 75.4506 403.102 76.3321 400.052C77.2135 397.001 78.2984 394.38 79.0443 392.21C80.5586 387.894 81.4175 385.431 81.4175 385.431" stroke="#5FC6FF" stroke-width="0.46" stroke-miterlimit="10"/>
<path d="M145.946 265.596L146.421 264.873C146.76 264.398 147.189 263.675 147.867 262.794L153.608 255.088L162.649 243.111L174.967 228.174C197.419 201.735 222.534 177.677 249.915 156.381C264.62 145.105 279.921 134.627 295.752 124.993L306.94 118.214C310.601 115.954 314.353 114.169 317.924 112.203L328.411 106.667C331.779 104.859 335.192 103.39 338.379 101.831L347.555 97.4467L351.827 95.4129L355.94 93.6729L369.705 87.9105C373.502 86.2609 376.486 85.1536 378.746 84.4079L381.933 83.2554" stroke="#5FC6FF" stroke-width="0.46" stroke-miterlimit="10"/>
<path d="M86.9778 433.993L87.4298 432.072C87.7462 430.83 88.1079 428.977 88.8311 426.694C90.1872 422.175 92.1084 415.395 94.4364 407.599C95.5665 403.645 97.2165 399.487 98.7082 395.012C100.2 390.538 101.85 385.838 103.658 381.024C105.466 376.211 107.591 371.33 109.648 366.336C110.665 363.828 111.682 361.297 112.721 358.766C113.761 356.235 114.982 353.817 116.202 351.331L123.141 336.484L130.577 322.451L134.125 315.672C135.255 313.412 136.589 311.446 137.787 309.413L144.567 298.114C145.63 296.351 146.624 294.634 147.619 293.052L150.58 288.532L155.394 281.324L159.575 275.064" stroke="#5FC6FF" stroke-width="0.46" stroke-miterlimit="10"/>
<path d="M90.5489 685.46C90.5489 685.46 89.5318 681.596 87.7915 674.861C86.9326 671.494 85.8703 667.404 84.6724 662.727L81.3273 646.75C79.9712 640.92 79.0671 634.525 77.9822 627.791C77.4624 624.401 76.8973 621.011 76.3323 617.396C75.7672 613.78 75.5412 610.187 75.1344 606.481C74.7275 602.775 74.2981 599.024 73.8913 595.182C73.4844 591.341 73.3714 587.476 73.1002 583.567C72.829 579.658 72.6256 575.726 72.3769 571.771C72.1283 567.816 72.3769 563.839 72.1735 559.885C71.9701 555.93 72.1735 551.93 72.0153 547.976C71.8571 544.021 72.2866 540.067 72.3996 536.157C72.5126 532.248 72.6934 528.361 72.829 524.542C72.9646 520.723 73.4618 516.927 73.7331 513.243C74.3885 505.809 74.8858 498.623 75.9933 491.866C76.4453 488.499 76.8973 485.2 77.3268 482.013C77.7562 478.827 78.1178 475.731 78.7507 472.816C81.0109 461.11 82.6156 451.303 84.4464 444.569L87.0004 433.948" stroke="#5FC6FF" stroke-width="0.46" stroke-miterlimit="10"/>
<path d="M56.2842 704.306L55.3801 701.346C54.8151 699.425 53.8206 696.646 52.9392 692.985C52.0577 689.324 50.8598 684.94 49.5263 679.901C48.8708 677.37 48.1927 674.658 47.4469 671.833C46.701 669.009 46.2264 665.935 45.5483 662.794C44.8703 659.653 44.2148 656.377 43.5141 652.964C43.1525 651.27 42.7909 649.552 42.4293 647.789C42.0676 646.027 41.8416 644.242 41.5478 642.411C40.4403 635.135 39.0164 627.474 38.0219 619.497C37.0274 611.52 36.1233 603.25 35.4227 594.843C34.722 586.437 34.27 577.85 33.9987 569.263C32.9992 537.788 34.9134 506.288 39.717 475.166C40.4629 468.771 41.7964 463.009 42.6779 457.856C43.5594 452.704 44.5086 448.23 45.1867 444.546L47.9215 433.067" stroke="#5FC6FF" stroke-width="0.46" stroke-miterlimit="10"/>
<path d="M157.677 298.746L163.598 289.888L170.379 279.697C173.181 275.9 176.368 271.629 179.849 266.952C181.612 264.692 183.33 262.138 185.319 259.72L191.512 252.218L198.021 244.286C200.281 241.597 202.745 239.043 205.163 236.309C210.09 230.954 215.04 225.282 220.578 220.016C226.115 214.751 231.381 209.034 237.258 203.972C243.134 198.91 248.694 193.464 254.729 188.764C260.764 184.063 266.392 179.069 272.336 174.866C283.886 166.008 295.3 158.618 305.064 152.269C315.076 146.325 323.281 141.151 329.383 138.1L338.786 133.061" stroke="#5FC6FF" stroke-width="0.46" stroke-miterlimit="10"/>
<path d="M54.3179 408.277L56.5781 400.458C57.3465 397.995 58.115 394.922 59.3129 391.532L63.3134 380.098C64.8052 375.917 66.2743 371.33 68.1276 366.539L74.1624 351.715L77.3718 343.896C78.5245 341.298 79.7676 338.676 80.9881 336.055L88.492 320.056C98.2061 300.657 109.09 281.867 121.084 263.788C126.011 256.398 130.125 250.229 133.266 246.117L138.126 239.586" stroke="#5FC6FF" stroke-width="0.46" stroke-miterlimit="10"/>
<path d="M95.7925 490.239C95.7925 490.239 96.1315 487.64 96.7644 483.075C96.9226 481.923 97.0808 480.68 97.2616 479.302C97.4424 477.923 97.8041 476.454 98.0979 474.782C98.6855 471.641 99.3636 468.003 100.087 464.184C101.33 456.388 103.748 447.484 105.986 437.857C107.003 433.022 108.653 428.186 110.054 423.192C110.8 420.706 111.523 418.198 112.314 415.689C113.106 413.181 113.761 410.627 114.688 408.142C118.214 398.221 121.468 388.165 125.401 379.104L130.803 365.907L136.227 354.337L140.748 344.574L144.658 337.23C146.918 333.163 148.048 330.835 148.048 330.835" stroke="#5FC6FF" stroke-width="0.46" stroke-miterlimit="10"/>
<path d="M248.875 107.977C248.875 107.977 248.175 110.237 247.135 113.83C246.095 117.423 244.875 122.191 243.767 126.914C241.507 136.382 239.382 145.625 239.382 145.625L227.177 155.59L221.256 160.426C219.154 162.121 217.097 164.11 214.882 166.076L201.14 178.504C192.257 187.431 183.058 196.131 176.911 203.362L166.288 214.954C166.288 214.954 157.993 216.355 149.517 217.983L137.787 220.242L133.899 221.056L132.453 221.395L120.677 237.213C117.061 241.868 113.332 247.676 109.218 253.8L102.889 263.291C100.765 266.522 98.8437 270.07 96.7869 273.324L90.7522 283.425C89.7803 285.097 88.7632 286.725 87.8365 288.374C86.9099 290.024 86.051 291.719 85.1921 293.346C81.734 299.854 78.4116 305.933 75.7445 311.153C73.0775 316.373 71.1112 320.937 69.642 324.033L67.3818 328.937" stroke="#5FC6FF" stroke-width="0.46" stroke-miterlimit="10"/>
<path d="M145.946 380.369L147.167 377.364C147.573 376.392 148.003 375.217 148.59 373.906C149.178 372.595 149.901 371.149 150.647 369.545C152.162 366.336 153.902 362.585 155.778 358.585C156.75 356.596 157.609 354.472 158.716 352.416C159.824 350.359 160.976 348.303 162.039 346.224C164.299 342.043 166.559 337.886 168.525 333.976L174.696 323.604L179.08 316.26L180.301 314.203L180.776 313.503C180.776 313.503 189.816 311.537 198.473 309.887C202.835 309.074 207.129 308.283 210.384 307.763L215.899 307.017L222.883 297.639C224.013 296.148 225.143 294.43 226.59 292.713L231.223 287.109L236.467 280.736C237.393 279.629 238.297 278.476 239.292 277.301L242.456 273.844C252.095 262.969 262.31 252.619 273.059 242.84L282.1 234.705C285.219 232.061 288.496 229.462 291.728 226.796C298.08 221.327 305.086 216.468 311.889 211.361C337.326 193.186 364.707 177.899 393.527 165.782L401.981 162.211C404.67 161.059 407.315 160.246 409.733 159.319L422.367 154.799L433.668 151.342C433.668 151.342 435.929 146.506 439.884 139.275C443.839 132.044 449.286 122.824 455.276 113.355C461.311 104.316 467.797 94.8705 472.928 87.9783C478.059 81.086 481.697 76.6794 481.697 76.6794" stroke="#5FC6FF" stroke-width="0.46" stroke-miterlimit="10"/>
<path d="M125.401 469.811C125.401 469.811 125.017 471.799 124.361 475.279C124.045 477.019 123.638 479.121 123.186 481.539C122.734 483.957 122.44 486.736 121.988 489.742C119.8 504.419 118.411 519.205 117.829 534.033C117.671 538.078 117.513 542.123 117.377 546.1C117.242 550.077 117.377 554.009 117.377 557.783C117.377 561.557 117.377 565.263 117.513 568.743C117.649 572.223 117.92 575.522 118.123 578.528C118.553 584.584 118.643 589.646 119.163 593.148C119.683 596.651 119.773 598.685 119.773 598.685C119.773 598.685 114.439 605.306 109.128 612.243C103.816 619.181 99.1602 626.412 99.1602 626.412L99.7026 629.847C100.109 632.107 100.426 635.18 101.262 638.886C102.098 642.592 102.957 646.931 103.929 651.586C104.404 653.846 104.924 656.309 105.443 658.727C105.963 661.145 106.709 663.585 107.342 666.048C108.608 670.93 109.896 675.833 111.094 680.42C112.292 685.008 113.829 689.188 114.959 692.804C116.089 696.42 116.993 699.448 117.694 701.549C118.394 703.651 118.892 704.826 118.892 704.826C118.892 704.826 113.625 716.645 108.721 729.186C104.2 741.479 99.9286 754.541 99.9286 754.541L100.403 755.693C100.697 756.439 101.172 757.524 101.827 758.857L107.184 770.156L110.755 777.658C112.021 780.302 113.58 783.014 115.072 785.838C116.564 788.663 118.168 791.601 119.751 794.584C121.333 797.567 122.937 800.595 124.768 803.487L135.12 820.752L144.884 835.35C146.308 837.497 147.596 839.463 148.794 841.18L152.003 845.519L154.806 849.315" stroke="#5FC6FF" stroke-width="0.46" stroke-miterlimit="10"/>
<path d="M123.344 860.93L122.689 860.049C122.259 859.484 121.672 858.625 120.926 857.518L114.801 848.321L110.71 842.197C109.241 839.937 107.681 837.677 106.189 835.259L96.9677 819.916L94.7076 816.006C93.9843 814.673 93.261 813.34 92.4474 812.006L88.266 804.256L84.3785 797.002L82.6607 793.635L81.1012 790.426L74.5466 776.686C74.5466 776.686 65.7093 772.619 57.2788 767.986C48.8483 763.354 40.0335 758.518 40.0335 758.518C40.0335 758.518 38.8356 755.806 37.1179 750.948L29.8174 730.858C28.4839 726.633 27.06 722.068 25.5457 717.3L23.2855 709.865C22.4718 707.312 21.6808 704.736 21.0253 702.046C18.2905 691.313 15.0358 679.969 12.8434 668.376C11.6681 662.591 10.3346 656.828 9.36274 651.111C8.39085 645.394 7.53198 639.812 6.6731 634.253C6.24367 631.519 5.76902 628.853 5.42999 626.209C5.09096 623.565 4.84234 620.966 4.54852 618.458C4.00607 613.396 3.48622 608.628 2.98898 604.244C2.49174 599.86 2.31091 595.77 2.06229 592.199C1.81367 588.629 1.63287 585.42 1.47466 582.889C1.18083 577.737 1 574.776 1 574.776" stroke="#5FC6FF" stroke-width="0.46" stroke-miterlimit="10"/>
<path d="M183.985 807.193L178.064 798.358C176.233 795.736 174.334 792.55 172.3 789.115C170.266 785.68 168.051 782.065 165.881 778.404C161.655 771.037 157.79 763.467 154.716 757.863L150.195 748.281L152.93 740.395C153.744 738.135 154.693 735.333 155.778 732.44C156.863 729.548 158.219 726.452 159.462 723.401C161.971 717.277 164.57 711.334 166.514 706.95C167.486 704.69 168.458 702.905 169.068 701.64C169.678 700.374 170.04 699.629 170.04 699.629C170.04 699.629 168.119 694.318 165.203 686.364C163.847 682.341 162.468 677.596 160.863 672.534C160.118 670.003 159.146 667.427 158.49 664.715C157.835 662.003 157.112 659.292 156.388 656.557C155.665 653.823 154.964 651.089 154.264 648.4C153.563 645.711 153.111 642.999 152.546 640.423C151.506 635.225 150.286 630.412 149.63 626.254C148.297 617.893 147.37 612.311 147.37 612.311" stroke="#5FC6FF" stroke-width="0.46" stroke-miterlimit="10"/>
<path d="M295.639 107.638L297.899 106.26C299.368 105.401 301.425 104 304.024 102.735L322.987 92.5656L342.379 83.3006C345.024 81.9899 347.261 81.0408 348.844 80.3855L351.33 79.346L355.602 70.9171L360.122 62.217L362.925 57.2681L365.705 52.4322C369.57 45.8111 373.615 39.1222 376.734 34.0829C379.853 29.0437 382.046 25.7896 382.046 25.7896L399.359 20.3888C404.512 18.6714 410.66 17.2025 417.26 15.4625C423.859 13.7225 430.821 11.8243 437.94 10.4684C445.06 9.11255 452.134 7.41773 458.824 6.22005L477.177 3.28236C482.534 2.35586 487.032 1.88131 490.196 1.54234L495.146 1" stroke="#5FC6FF" stroke-width="0.46" stroke-miterlimit="10"/>
<path d="M13.7927 518.712C13.7927 518.712 14.4708 510.757 15.5105 498.849C15.8947 492.86 17.0022 485.968 17.9741 478.511C18.4713 474.805 19.0138 470.986 19.5336 467.212C20.0535 463.438 20.9576 459.438 21.7938 455.506C24.4382 439.688 28.5744 424.344 31.3092 412.729C34.6769 401.272 36.9145 393.611 36.9145 393.611L34.1119 386.877C32.5523 382.877 30.7215 377.567 28.823 372.121C26.9244 366.675 25.1163 361.161 23.7376 356.981C23.0821 354.879 22.5171 353.116 22.1102 351.896C21.7034 350.676 21.5452 349.975 21.5452 349.975L28.3258 333.05L31.6708 324.869C32.8914 321.977 34.3605 318.994 35.7844 315.83C38.7 309.616 41.8191 303.017 44.8251 296.396C51.6057 283.493 58.3863 270.432 64.195 261.144L70.9756 249.845C71.7893 248.467 72.4447 247.382 72.8967 246.659L73.62 245.552" stroke="#5FC6FF" stroke-width="0.46" stroke-miterlimit="10"/>
<path d="M811.685 117.965L817.878 121.671C821.834 123.931 827.529 127.298 833.994 131.795C840.458 136.292 848.278 141.105 856.076 147.139L868.235 156.178L880.327 166.143L886.407 171.138C888.419 172.81 890.295 174.618 892.216 176.335L903.517 186.549C905.37 188.176 907.066 189.894 908.738 191.588C910.411 193.283 912.038 194.91 913.643 196.492L922.683 205.531L935.476 219.632L939.025 223.587C939.465 224.038 939.88 224.513 940.268 225.01" stroke="#5FC6FF" stroke-width="0.46" stroke-miterlimit="10"/>
<path d="M1011.33 340.846C1011.33 340.846 1011.85 341.908 1012.8 343.919L1014.56 347.602C1015.17 349.094 1015.89 350.789 1016.82 352.687L1022.58 366.449C1023.15 367.782 1023.74 369.161 1024.3 370.584L1025.91 375.104C1027.01 378.154 1028.17 381.341 1029.41 384.663C1030.65 387.984 1031.99 391.442 1033.07 395.103C1034.16 398.764 1035.33 402.537 1036.6 406.402C1037.86 410.266 1039.17 414.22 1040.19 418.378C1041.21 422.536 1042.45 426.717 1043.49 431.01C1045.89 439.552 1047.49 448.591 1049.46 457.698C1050.5 462.218 1051.18 466.873 1051.92 471.528L1054.18 485.538C1058.79 519.943 1059.87 554.728 1057.41 589.352C1056.78 596.425 1056.22 602.911 1055.72 608.65C1055.22 614.39 1054.27 619.339 1053.71 623.452C1053.14 627.565 1052.71 630.773 1052.4 632.965C1052.08 635.157 1051.79 636.31 1051.79 636.31" stroke="#5FC6FF" stroke-width="0.46" stroke-miterlimit="10"/>
<path d="M895.154 205.463L900.488 210.819C903.834 214.254 908.828 218.954 914.23 225.191C916.988 228.242 919.994 231.541 923.135 235.044C926.277 238.546 929.328 242.523 932.628 246.342C939.409 254.184 945.647 263.133 952.224 271.946C963.813 288.388 974.38 305.527 983.867 323.265L989.178 333.163L992.93 340.959L996.162 347.738" stroke="#5FC6FF" stroke-width="0.46" stroke-miterlimit="10"/>
<path d="M675.464 82.9164L678.244 83.5944L681.589 84.4079L686.109 85.7185L698.134 89.2438C700.394 89.9443 702.948 90.6222 705.547 91.5035L713.616 94.3282L722.295 97.3563C725.324 98.4184 728.488 99.4579 731.63 100.814L751.678 108.926L772.516 118.666C779.5 122.191 786.484 126.033 793.514 129.716C800.543 133.4 807.21 137.806 813.855 141.783C817.268 143.704 820.41 146.009 823.619 148.088L833.044 154.415C836.186 156.427 839.124 158.619 842.085 160.788L850.516 167.047C856.098 171.002 861.003 175.228 865.614 179.002C874.971 186.414 882.136 193.328 887.312 197.961C892.487 202.594 895.245 205.463 895.245 205.463" stroke="#5FC6FF" stroke-width="0.46" stroke-miterlimit="10"/>
<path d="M676.345 43.7547L687.827 46.5116C691.511 47.3025 695.828 48.7714 700.868 50.1498C705.908 51.5283 711.559 53.2457 717.684 55.1665C747.574 64.9874 776.56 77.3718 804.317 92.1814C808.092 94.2152 811.911 96.136 815.618 98.2602L826.58 104.791L837.339 111.186L847.532 117.965L857.387 124.745C860.596 127.004 863.557 129.264 866.54 131.524L875.174 137.942L879.288 140.992C880.599 142.009 881.864 143.094 883.108 144.088L896.669 155.387L899.607 157.782L902.206 160.042L906.726 164.223L915.451 172.177" stroke="#5FC6FF" stroke-width="0.46" stroke-miterlimit="10"/>
<path d="M976.725 334.36L978.058 336.823C978.962 338.405 980.092 340.823 981.539 343.896C984.409 350.066 988.884 358.675 993.179 369.5C995.439 374.878 997.993 380.64 1000.14 386.968L1003.67 396.617C1004.25 398.266 1004.86 399.916 1005.47 401.611C1006.08 403.306 1006.56 405.023 1007.1 406.763C1011.62 420.615 1015.74 435.598 1019.1 450.738C1025.23 478.551 1028.92 506.845 1030.13 535.298C1030.13 541.106 1030.29 546.439 1030.36 551.117C1030.36 553.497 1030.36 555.712 1030.36 557.761C1030.36 559.794 1030.25 561.67 1030.22 563.365C1029.97 570.144 1029.82 574.031 1029.82 574.031" stroke="#5FC6FF" stroke-width="0.46" stroke-miterlimit="10"/>
<path d="M933.781 190.007L935.295 191.521C936.29 192.47 937.555 193.984 939.386 195.905L953.784 211.859L962.824 222.954C966.011 226.931 969.605 230.976 972.747 235.496L982.94 249.258C984.703 251.517 986.308 254.048 987.958 256.489L992.885 263.878L997.79 271.245C999.462 273.686 1000.86 276.262 1002.31 278.747C1005.32 283.742 1008.25 288.668 1011.1 293.436C1013.95 298.204 1016.3 303.017 1018.74 307.492C1021.18 311.966 1023.51 316.169 1025.34 320.214L1034.54 339.603L1037.7 347.105" stroke="#5FC6FF" stroke-width="0.46" stroke-miterlimit="10"/>
<path d="M842.085 184.99C842.085 184.99 844.345 186.504 847.758 189.51L862.427 201.577C876.955 214.292 890.7 227.875 903.585 242.252L908.874 248.105C910.659 250.026 912.219 252.128 913.891 254.116L923.542 265.89C926.548 269.799 929.328 273.686 932.041 277.188C934.753 280.691 937.397 284.194 939.499 287.538L950.1 303.356L953.829 309.571" stroke="#5FC6FF" stroke-width="0.46" stroke-miterlimit="10"/>
<path d="M1096.63 508.633L1095.48 507.413L1092.31 504.227C1089.67 501.605 1086.19 498.148 1082.68 494.781C1079.18 491.414 1075.7 488.115 1073.08 485.742C1071.79 484.522 1070.66 483.482 1069.84 482.827L1068.6 481.719L1066.12 466.172C1065.73 463.913 1065.41 461.291 1064.85 458.647C1064.28 456.003 1063.72 453.201 1063.11 450.309C1062.5 447.416 1061.89 444.433 1061.26 441.383C1060.62 438.332 1060.01 435.259 1059.15 432.231C1057.57 426.129 1055.99 420.028 1054.5 414.311C1053.01 408.594 1051.2 403.374 1049.84 398.854C1048.49 394.334 1047.24 390.583 1046.43 387.962C1045.62 385.341 1044.96 383.872 1044.96 383.872C1044.96 383.872 1047.94 376.008 1050.84 367.827C1052.24 363.76 1053.75 359.602 1054.68 356.529L1056.26 351.376L1048.64 333.298L1039.99 315.062C1039.17 313.412 1038.38 311.717 1037.55 310L1034.86 304.916L1029.3 294.566C1025.7 287.561 1021.57 280.849 1017.77 274.522C1015.84 271.358 1014.01 268.345 1012.28 265.483C1010.47 262.635 1008.64 259.992 1007.01 257.528C1003.73 252.625 1001 248.489 999.101 245.665C997.202 242.84 995.982 241.145 995.982 241.145" stroke="#5FC6FF" stroke-width="0.46" stroke-miterlimit="10"/>
<path d="M912.151 283.38L919.158 292.848C921.418 295.651 923.565 299.108 925.938 302.791L933.623 314.294L940.742 326.18L944.02 331.649C945.082 333.389 945.918 335.106 946.755 336.665L952.337 347.038L950.71 352.393C949.693 355.602 948.156 359.918 946.664 364.121C943.658 372.573 940.494 380.64 940.494 380.64C940.494 380.64 940.946 381.612 941.692 383.465L945.037 391.442C948.111 398.221 951.682 408.3 955.954 420.344C957.762 426.468 959.999 433.022 961.988 440.072C962.892 443.62 963.842 447.258 964.791 450.987C965.288 452.84 965.785 454.715 966.283 456.613C966.78 458.512 967.096 460.478 967.526 462.421L970.012 474.33L970.667 477.358L971.142 480.431C971.458 482.465 971.775 484.544 972.114 486.601C972.724 490.759 973.538 494.894 974.035 499.12C974.532 503.345 974.962 507.549 975.414 511.797C978.563 542.85 978.168 574.161 974.238 605.125C973.809 608.289 973.38 611.317 972.995 614.164C972.611 617.011 972.317 619.791 971.752 622.322C970.803 627.429 969.967 631.858 969.289 635.519C968.95 637.349 968.633 638.976 968.362 640.4C968.091 641.824 967.729 642.999 967.503 643.97L966.78 646.953C966.78 646.953 969.695 651.473 974.012 658.252L977.471 663.902C978.646 665.935 979.731 668.06 981.064 670.297C983.528 674.816 986.127 679.607 988.704 684.556L992.546 692.013L995.914 699.289C998.174 704.058 1000.09 708.6 1001.79 712.532C1003.49 716.464 1004.89 719.831 1005.88 722.136L1007.26 725.797" stroke="#5FC6FF" stroke-width="0.46" stroke-miterlimit="10"/>
<path d="M845.023 220.807L829.405 207.949C824.636 204.198 818.873 200.085 812.816 195.52C811.301 194.345 809.719 193.261 808.069 192.199L803.142 188.922L793.107 182.143C786.168 177.939 779.207 173.782 772.765 169.94L754.412 160.2L735.856 151.636C735.856 151.636 735.11 149.579 733.935 146.597C732.76 143.614 730.997 139.817 729.415 135.795C725.979 127.886 722.205 119.841 722.205 119.841C721.142 119.369 720.056 118.954 718.95 118.598L710.293 115.57L698.043 111.299L683.872 107.118L676.639 104.994C674.221 104.339 671.825 103.819 669.519 103.254L656.749 100.226C653.065 99.2771 649.969 98.8026 647.709 98.3732L644.273 97.7405L639.459 91.1194C636.521 87.1648 632.52 81.7413 628.294 76.7699C624.067 71.7984 619.75 66.5557 616.382 62.6915L612.314 58.0364C611.32 56.9065 610.755 56.3416 610.755 56.3416L593.667 54.8728C588.559 54.3078 582.547 54.127 576.128 53.9011C569.709 53.6751 562.861 53.2909 556.013 53.5169L545.774 53.6525C542.406 53.6525 538.993 53.6525 535.874 53.9237L518.335 54.9857L514.651 55.2117L511.351 55.5733L505.972 56.1608L501.293 56.6806" stroke="#5FC6FF" stroke-width="0.46" stroke-miterlimit="10"/>
<path d="M507.08 23.5072L511.261 23.0553C513.905 22.8293 517.725 22.6485 522.268 22.3322L537.863 21.4057L555.787 21.1797C558.815 21.1797 561.867 21.0441 564.827 21.1797L573.642 21.4961L589.238 22.061L604.426 23.3491L609.444 19.9368C612.45 17.9256 616.518 15.1235 620.745 12.6604C628.972 7.59851 637.56 2.60443 637.56 2.60443L645.607 3.71172L666.672 7.6437C668.932 8.07306 671.192 8.45722 673.452 8.95437L680.64 10.6718L696.167 14.4004C698.857 15.0105 701.569 15.7789 704.304 16.6602L712.576 19.1007C718.136 20.7729 723.877 22.287 729.437 24.2078L746.004 29.8346C748.739 30.8063 751.474 31.7102 754.141 32.7271L761.939 35.8682L776.675 41.9017C779.048 42.8282 781.196 43.8225 783.456 44.862L789.694 47.9127L800.611 53.0198C803.865 54.5338 806.691 55.8671 808.951 57.1325L816.116 60.9289" stroke="#5FC6FF" stroke-width="0.46" stroke-miterlimit="10"/>
<path d="M523.398 102.87L533.998 102.237C540.349 101.65 548.848 101.785 557.346 101.627C559.471 101.627 561.595 101.492 563.675 101.627L569.822 101.876L580.694 102.26C583.881 102.26 586.525 102.554 588.378 102.735L591.294 102.983L596.764 109.333L602.301 115.706C603.273 116.903 604.268 118.124 605.307 119.366C606.347 120.609 607.319 121.988 608.313 123.321C612.336 128.609 616.179 133.851 618.981 137.783L622.349 142.506C623.14 143.636 623.57 144.337 623.57 144.337L637.425 146.958C639.504 147.365 641.787 147.681 644.205 148.269L651.619 150.054L659.552 151.952C660.885 152.291 662.264 152.562 663.62 152.947L667.666 154.144L683.487 158.822L697.161 163.635L702.631 165.511C704.236 166.144 705.615 166.731 706.767 167.206L710.384 168.674" stroke="#5FC6FF" stroke-width="0.46" stroke-miterlimit="10"/>
<path d="M1073.51 549.354L1073.62 559.116C1073.42 564.992 1073.14 572.811 1072.85 580.629C1072.85 584.539 1072.38 588.426 1072.06 592.086C1071.74 595.747 1071.47 599.137 1071.2 602.075C1070.93 605.012 1070.75 607.43 1070.59 609.125C1070.43 610.82 1070.27 611.792 1070.27 611.792C1070.27 611.792 1078.48 624.288 1086.5 637.756C1094.03 651.044 1101.28 665.258 1101.28 665.258L1101.04 666.546C1100.88 667.382 1100.67 668.602 1100.29 670.139C1099.54 673.235 1098.48 677.641 1097.24 682.929C1096.58 685.573 1095.9 688.443 1095.18 691.471C1094.46 694.499 1093.6 697.685 1092.6 700.939C1090.68 707.447 1088.65 714.498 1086.59 721.277C1084.54 728.056 1081.87 734.971 1079.63 741.389C1078.48 744.575 1077.51 747.716 1076.31 750.586C1075.11 753.456 1074.05 756.19 1073.03 758.721L1066.25 775.466" stroke="#5FC6FF" stroke-width="0.46" stroke-miterlimit="10"/>
<path d="M858.178 99.8873L862.698 102.938L867.919 106.441L871.129 108.587L874.609 111.186L891.018 123.389C896.917 127.908 902.975 133.128 909.1 138.19L913.62 142.009L918.005 145.986L926.526 153.737C929.261 156.291 932.018 158.641 934.437 161.059L941.217 167.838L951.411 178.098L955.117 182.143C955.117 182.143 966.238 183.815 977.719 185.894C983.505 186.866 989.02 188.154 993.292 189.171L1000.41 190.82L1003.73 194.797C1005.72 197.306 1008.73 200.786 1011.94 205.237L1023.08 220.333C1025.18 223.067 1027.1 226.027 1029.12 229.033C1031.13 232.038 1033.16 235.066 1035.2 238.072C1037.23 241.077 1039.29 244.128 1041.19 247.111L1046.66 256.15C1050.14 262.07 1053.57 267.449 1056.17 272.307L1064.83 288.442" stroke="#5FC6FF" stroke-width="0.46" stroke-miterlimit="10"/>
</g>
</svg>
