<svg width="819" height="844" viewBox="0 0 819 844" fill="none" xmlns="http://www.w3.org/2000/svg">
<path d="M619.236 707.494L617.721 708.579C616.727 709.257 615.326 710.341 613.404 711.539L606.624 715.923C603.979 717.641 601.019 719.561 597.583 721.437C581.301 731.087 564.191 739.27 546.458 745.888C528.734 752.508 510.482 757.618 491.897 761.164L481.5 763.017C478.403 763.514 475.668 763.785 473.431 764.079L466.402 764.983" stroke="#5FC6FF" stroke-width="0.52" stroke-miterlimit="10"/>
<path d="M334.294 749.594C334.294 749.594 333.163 749.322 331.107 748.599L322.202 745.594C318.337 744.374 313.771 742.52 308.527 740.464C303.284 738.408 297.452 735.764 291.124 732.916C276.79 726.189 262.966 718.425 249.762 709.686C234.652 699.642 220.381 688.389 207.09 676.038C182.198 652.84 161.055 625.923 144.415 596.246C142.629 593.286 141.138 590.303 139.691 587.478C138.245 584.653 136.888 581.987 135.6 579.479C133.182 574.372 131.215 569.875 129.543 566.191C127.87 562.508 126.808 559.412 125.972 557.468L124.751 554.373" stroke="#5FC6FF" stroke-width="0.52" stroke-miterlimit="10"/>
<path d="M505.413 736.035L498.383 737.662C496.123 738.114 493.456 738.905 490.315 739.402L479.737 741.3C460.737 744.275 441.509 745.538 422.283 745.074C403.055 744.56 383.915 742.291 365.1 738.295L354.635 736.035C351.516 735.335 348.872 734.453 346.657 733.775L339.718 731.809" stroke="#5FC6FF" stroke-width="0.52" stroke-miterlimit="10"/>
<path d="M695.404 594.687L694.026 596.947L689.867 603.455C688.081 606.234 685.934 609.669 683.199 613.398C680.464 617.126 677.571 621.488 673.955 625.894L668.463 632.877L662.225 640.063L658.993 643.814L655.489 647.52L648.234 655.09C637.619 665.517 626.348 675.254 614.489 684.241C602.497 693.051 589.941 701.068 576.902 708.24C570.529 711.426 564.517 714.771 558.504 717.279C555.521 718.612 552.651 719.946 549.825 721.166L541.553 724.42C536.309 726.68 531.314 728.149 526.93 729.663C522.545 731.177 518.68 732.284 515.493 733.188L508.057 735.289C506.339 735.764 505.413 735.945 505.413 735.945" stroke="#5FC6FF" stroke-width="0.52" stroke-miterlimit="10"/>
<path d="M736.449 608.923C736.449 608.923 734.189 612.675 730.505 619.205C728.471 622.392 725.985 626.256 723.159 630.707C720.334 635.159 716.74 639.882 713.011 645.193C711.158 647.859 708.965 650.435 706.841 653.215C704.716 655.994 702.524 658.841 700.06 661.644C695.201 667.248 690.183 673.281 684.465 679.044C678.747 684.806 672.825 690.682 666.677 696.557C660.529 702.432 653.839 707.856 646.923 713.121C640.007 718.386 633.068 723.448 626.129 728.352C619.191 733.256 611.981 737.594 604.861 741.504C597.741 745.413 590.848 749.096 584.248 752.486C580.948 754.181 577.603 755.582 574.416 757.006C571.229 758.429 568.201 759.898 565.172 761.073C559.115 763.333 553.645 765.751 548.65 767.468L535.722 771.83C532.105 772.982 529.212 773.728 527.269 774.293L524.285 775.152" stroke="#5FC6FF" stroke-width="0.52" stroke-miterlimit="10"/>
<path d="M362.049 724.533L359.495 723.945L356.443 723.245L352.352 722.092C349.301 721.188 345.572 720.194 341.323 718.906C337.074 717.618 332.282 715.946 327.242 714.07C302.211 704.712 278.547 692.042 256.882 676.4C235.218 660.737 215.777 642.212 199.089 621.329C195.699 617.036 192.557 613.149 190.048 609.466C187.539 605.782 185.121 602.686 183.471 600.042L178.069 591.614" stroke="#5FC6FF" stroke-width="0.52" stroke-miterlimit="10"/>
<path d="M499.175 781.23L491.106 782.676C488.529 783.106 485.41 783.761 481.816 784.236L469.702 785.772C447.934 788.145 425.997 788.553 404.156 786.993C382.324 785.378 360.686 781.762 339.515 776.191L327.762 772.847C324.236 771.897 321.275 770.745 318.721 769.954L310.946 767.31" stroke="#5FC6FF" stroke-width="0.52" stroke-miterlimit="10"/>
<path d="M545.983 699.336C545.983 699.336 537.146 703.449 523.381 708.195C506.488 714.007 489.082 718.206 471.397 720.736C453.67 723.284 435.745 724.177 417.853 723.403C414.191 723.403 410.846 722.928 407.885 722.77C404.924 722.612 402.325 722.386 400.201 722.16L393.556 721.301" stroke="#5FC6FF" stroke-width="0.52" stroke-miterlimit="10"/>
<path d="M155.987 687.563C155.987 687.563 166.52 688.625 176.668 689.19C186.816 689.755 197.01 689.529 197.01 689.529L197.823 690.297C198.343 690.817 199.134 691.54 200.196 692.444L208.83 699.901C210.571 701.483 212.582 703.088 214.707 704.737L221.487 710.002C223.748 711.855 226.279 713.618 228.81 715.403C231.342 717.189 233.896 719.042 236.473 720.849C241.671 724.397 247.028 727.629 252 730.905L265.991 738.95L280.004 746.136L280.524 747.582C280.885 748.486 281.405 749.842 282.015 751.334C283.281 754.429 284.999 758.587 286.83 762.768L289.564 768.937L292.118 774.202C293.678 777.276 294.695 779.332 294.695 779.332L299.893 781.388C303.148 782.767 307.962 784.304 313.726 786.27C341.85 795.716 371.044 801.615 400.63 803.828C406.665 804.257 411.705 804.709 415.231 804.732L420.769 804.867" stroke="#5FC6FF" stroke-width="0.52" stroke-miterlimit="10"/>
<path d="M435.889 701.709H432.996C432.069 701.709 430.939 701.709 429.651 701.709L425.334 701.596C422.192 701.438 418.554 701.596 414.53 701.212C410.507 700.828 406.394 700.647 402.212 700.24L389.939 698.704L379.339 696.806C376.22 696.331 373.689 695.608 371.881 695.224L369.078 694.568C369.078 694.568 365.032 686.478 361.8 678.072C360.15 673.892 358.591 669.869 357.528 666.773L355.833 661.531L353.392 660.695C351.81 660.107 349.414 659.497 346.612 658.254C338.457 655.262 330.481 651.807 322.721 647.904C299.149 635.879 277.758 619.992 259.436 600.901C249.655 590.714 240.777 579.698 232.901 567.976C226.079 557.748 220.079 546.996 214.955 535.82C213.848 533.379 212.695 531.029 211.769 528.792C210.842 526.555 210.028 524.273 209.215 522.284C207.497 518.262 206.412 514.601 205.395 511.641L204.016 507.663C203.654 506.511 203.406 505.404 203.18 504.703C202.705 503.076 202.479 502.217 202.479 502.217L199.021 500.929C196.874 500.093 193.574 498.918 189.98 497.314C180.687 493.318 171.631 488.791 162.858 483.755C160.417 482.354 157.953 480.93 155.535 479.461C153.117 477.993 151.015 476.501 148.754 474.942C144.234 471.982 140.098 469.089 136.549 466.49C129.769 461.293 125.068 457.451 125.068 457.451" stroke="#5FC6FF" stroke-width="0.52" stroke-miterlimit="10"/>
<path d="M514.431 680.739L519.064 679.179L531.088 674.411C543.087 669.196 554.71 663.156 565.873 656.333C577.006 649.455 587.586 641.718 597.515 633.193L603.053 628.402C604.703 626.979 606.014 625.6 607.166 624.538L610.715 621.149C610.715 621.149 612.975 621.465 616.094 621.804C619.213 622.143 623.575 622.459 627.96 622.73C632.345 623.002 636.82 623.205 640.075 623.205H645.612L647.714 620.764L650.133 617.985L653.093 614.234C657.614 608.788 663.038 601.263 668.191 593.489C669.457 591.523 670.723 589.557 671.943 587.614C673.164 585.67 674.43 583.795 675.469 581.874C677.616 578.055 679.741 574.575 681.391 571.479L686.702 561.107C686.702 561.107 687.539 560.903 688.963 560.497L694.704 558.779C697.099 558.033 699.902 557.152 702.931 556.135C705.959 555.118 709.214 554.034 712.356 552.791C718.662 550.328 725.148 547.661 729.94 545.514L737.851 541.695C737.851 541.695 738.393 540.113 739.32 537.334C739.772 535.955 740.405 534.283 740.97 532.317C741.535 530.351 742.168 528.159 742.846 525.741C743.524 523.323 744.27 520.702 745.106 517.945C745.942 515.188 746.439 512.183 747.14 509.132C748.699 503.053 749.784 496.432 750.96 489.856C751.615 486.557 751.999 483.235 752.406 479.981C752.813 476.727 753.242 473.496 753.627 470.377C754.101 464.14 754.576 458.287 754.96 453.293C755.209 443.26 755.367 436.571 755.367 436.571" stroke="#5FC6FF" stroke-width="0.52" stroke-miterlimit="10"/>
<path d="M791.123 446.13C791.123 446.13 791.123 447.666 791.123 450.378C791.123 451.734 791.123 453.384 790.965 455.259C790.807 457.135 790.671 459.282 790.513 461.587C789.948 470.874 788.592 483.213 786.603 495.483C786.061 498.534 785.518 501.584 784.976 504.522C784.704 506.029 784.433 507.535 784.162 509.042C783.846 510.511 783.507 511.957 783.19 513.358C781.857 519.03 780.749 524.363 779.506 528.837C776.975 537.876 775.257 543.797 775.257 543.797C775.257 543.797 779.393 552.949 783.281 562.711C785.315 567.592 786.874 572.451 788.208 576.27L790.31 582.552L789.496 584.631C788.954 585.964 788.208 587.953 787.055 590.416L783.055 599.274C782.286 600.992 781.45 602.822 780.568 604.743L777.562 610.686C775.415 614.799 773.245 619.341 770.623 623.951C768.002 628.561 765.176 633.396 762.261 638.436L752.632 653.463C749.152 658.457 745.558 663.474 741.964 668.513C728.402 686.672 713.276 703.609 696.76 719.132C683.199 731.832 673.503 739.47 673.503 739.47" stroke="#5FC6FF" stroke-width="0.52" stroke-miterlimit="10"/>
<path d="M701.191 451.757C701.191 451.757 700.919 455.598 700.467 461.338C700.332 464.208 699.812 467.53 699.382 471.1C698.953 474.671 698.524 478.467 697.755 482.241C696.987 486.015 696.512 489.789 695.676 493.291C694.839 496.794 694.116 500.071 693.415 502.85C692.715 505.63 692.014 507.912 691.585 509.629C691.155 511.347 690.861 512.16 690.861 512.16C690.861 512.16 687.765 513.561 683.177 515.46C678.589 517.358 672.079 519.595 665.909 521.629C659.739 523.662 653.252 525.267 648.641 526.419C646.381 527.007 644.415 527.459 642.991 527.73L640.73 528.159L639.397 531.097C638.493 532.95 637.476 535.617 635.758 538.78C634.04 541.944 632.435 545.56 630.13 549.401C629.023 551.322 627.87 553.288 626.762 555.299C625.655 557.31 624.231 559.209 622.965 561.197C620.547 565.242 617.654 568.948 615.168 572.496C612.681 576.044 609.901 579.275 607.777 582.032L600.115 590.958" stroke="#5FC6FF" stroke-width="0.52" stroke-miterlimit="10"/>
<path d="M151.964 638.865L146.313 630.888C144.573 628.628 142.833 625.6 140.821 622.55C138.809 619.499 136.64 616.222 134.719 612.81C130.808 606.031 126.876 599.252 124.322 594.009L121.09 587.704C120.298 586.19 119.892 585.309 119.892 585.309C119.892 585.309 116.253 583.885 110.715 581.58C105.178 579.275 97.6514 576.021 90.3736 572.293C86.712 570.462 83.0279 568.564 79.5698 566.711C76.1117 564.858 73.0379 563.028 70.303 561.446C64.8786 558.237 61.2623 555.977 61.2623 555.977C61.2623 555.977 60.6068 554.192 59.6349 551.006C58.6631 547.819 57.3747 543.255 55.8604 537.763L54.6625 533.492C54.3009 532.001 53.9393 530.442 53.555 528.86C52.8318 525.674 52.0633 522.329 51.2949 518.849C50.5264 515.369 49.8031 511.776 49.0347 508.093C48.2662 504.409 47.7237 500.681 47.0683 496.929C45.9608 489.427 45.0115 481.902 44.243 474.829C43.4746 467.756 43.1356 461.135 42.8191 455.463C42.5253 444.164 42.3445 436.549 42.3445 436.549" stroke="#5FC6FF" stroke-width="0.52" stroke-miterlimit="10"/>
<path d="M617.608 761.141L612.704 763.966C609.607 765.841 605.019 768.146 599.504 770.971C586.026 777.813 572.155 783.849 557.962 789.049C550.142 791.648 542.412 794.518 534.931 796.484L524.217 799.512L514.498 801.772L506.271 803.67C503.808 804.167 501.751 804.506 499.875 804.845L494.315 805.839L489.456 811.737C486.495 815.262 482.426 819.714 478.155 824.279C473.883 828.844 469.521 833.318 466.13 836.549L460.412 841.973L455.055 842.357C451.665 842.696 446.806 842.786 440.974 842.945L431.572 843.148C428.227 843.148 424.791 843.148 421.062 842.99L409.761 842.673C405.941 842.447 402.054 842.131 398.189 841.837C394.324 841.544 390.414 841.318 386.594 840.843L375.429 839.442C368.151 838.628 361.438 837.295 355.675 836.278L347.809 834.832L341.82 833.476L336.576 832.256" stroke="#5FC6FF" stroke-width="0.52" stroke-miterlimit="10"/>
<path d="M241.106 165.806L242.597 164.722C243.615 164.044 244.993 162.936 246.914 161.761L253.695 157.242C256.317 155.547 259.3 153.626 262.736 151.75C279.009 142.092 296.111 133.902 313.839 127.277C331.566 120.65 349.827 115.547 368.422 112.024L378.819 110.171C381.916 109.674 384.65 109.403 386.865 109.086L393.917 108.205" stroke="#5FC6FF" stroke-width="0.52" stroke-miterlimit="10"/>
<path d="M526.026 123.639C526.026 123.639 527.156 123.91 529.213 124.633L538.118 127.662C542.005 128.859 546.571 130.712 551.814 132.791C557.058 134.87 562.867 137.469 569.218 140.316C583.54 147.052 597.356 154.816 610.557 163.547C625.657 173.605 639.927 184.857 653.229 197.194C678.129 220.385 699.273 247.304 715.904 276.987C717.69 279.97 719.204 282.93 720.628 285.755L724.719 293.777C727.137 298.861 729.104 303.381 730.799 307.064C732.494 310.748 733.511 313.843 734.348 315.764C735.184 317.685 735.568 318.86 735.568 318.86" stroke="#5FC6FF" stroke-width="0.52" stroke-miterlimit="10"/>
<path d="M354.906 137.198L361.936 135.571C364.196 135.096 366.863 134.328 370.027 133.808L380.582 131.932C418.663 125.891 457.53 126.91 495.242 134.938L505.684 137.333C508.803 138.056 511.447 138.938 513.662 139.593L520.601 141.559" stroke="#5FC6FF" stroke-width="0.52" stroke-miterlimit="10"/>
<path d="M164.915 278.614L166.293 276.241L170.475 269.756C172.26 266.953 174.385 263.541 177.142 259.813C179.9 256.084 182.77 251.723 186.387 247.316L191.879 240.311L198.094 233.125L201.349 229.374L204.83 225.69L212.085 218.097C233.198 197.068 257.22 179.176 283.417 164.97C289.79 161.784 295.802 158.417 301.815 155.931C304.798 154.598 307.691 153.242 310.494 152.022L318.766 148.768C324.032 146.508 329.027 145.039 333.389 143.525C337.752 142.011 341.639 140.904 344.849 140.023L352.262 137.898C353.98 137.424 354.906 137.266 354.906 137.266" stroke="#5FC6FF" stroke-width="0.52" stroke-miterlimit="10"/>
<path d="M123.87 264.377L129.814 254.073L137.182 242.593C140.007 238.074 143.601 233.396 147.308 228.085C149.161 225.442 151.354 222.843 153.478 220.086C155.603 217.329 157.818 214.436 160.259 211.634C165.141 206.03 170.158 200.019 175.854 194.257C181.55 188.494 187.517 182.619 193.664 176.744C199.812 170.868 206.502 165.445 213.396 160.157C220.289 154.869 227.251 149.852 234.212 144.926C241.174 140 248.338 135.706 255.458 131.797C262.578 127.888 269.471 124.204 276.071 120.792C279.393 119.097 282.738 117.719 285.903 116.272C289.067 114.826 292.141 113.357 295.17 112.182C301.204 109.922 306.697 107.527 311.692 105.81L324.62 101.426C328.236 100.296 331.107 99.5501 333.05 98.9852L336.034 98.1265" stroke="#5FC6FF" stroke-width="0.52" stroke-miterlimit="10"/>
<path d="M498.271 148.768L500.825 149.355L503.876 150.056L507.967 151.208C511.018 152.089 514.747 153.084 518.996 154.372C523.246 155.66 528.037 157.355 533.1 159.208C583.409 177.997 627.693 210.051 661.253 251.971C664.621 256.265 667.785 260.151 670.294 263.835C672.802 267.518 675.198 270.614 676.848 273.258L682.25 281.687" stroke="#5FC6FF" stroke-width="0.52" stroke-miterlimit="10"/>
<path d="M361.145 92.0024L369.236 90.5561C371.813 90.1268 374.909 89.4488 378.525 88.9969L390.64 87.4602C412.406 85.0663 434.344 84.6503 456.186 86.2174C478.035 87.8552 499.688 91.4936 520.872 97.0868L532.625 100.431C536.129 101.403 539.089 102.555 541.666 103.346L549.441 105.99" stroke="#5FC6FF" stroke-width="0.52" stroke-miterlimit="10"/>
<path d="M314.336 173.964C314.336 173.964 323.196 169.829 336.938 165.106C353.827 159.276 371.234 155.069 388.922 152.542C406.65 150.005 424.574 149.112 442.466 149.875C446.128 149.875 449.45 150.372 452.434 150.53C455.417 150.689 457.971 150.914 460.096 151.14L466.741 151.999" stroke="#5FC6FF" stroke-width="0.52" stroke-miterlimit="10"/>
<path d="M704.355 185.737C704.355 185.737 693.8 184.675 683.674 184.088C673.548 183.5 663.332 183.771 663.332 183.771L662.496 183.003C661.976 182.483 661.185 181.738 660.123 180.743L651.511 173.354C649.748 171.772 647.759 170.19 645.612 168.518L638.832 163.275C636.571 161.4 634.063 159.637 631.531 157.852L623.869 152.406C618.648 148.881 613.292 145.627 608.342 142.373L594.351 134.328L580.338 127.142L579.795 125.673L578.304 121.944C577.061 118.848 575.32 114.691 573.49 110.51L570.755 104.318L568.336 99.0982C566.799 96.0023 565.76 93.9459 565.76 93.9459L560.584 91.9121C557.307 90.5337 552.492 88.9744 546.751 87.031C518.587 77.5501 489.346 71.6287 459.711 69.4049C453.654 68.9529 448.637 68.501 445.111 68.501L439.505 68.3428" stroke="#5FC6FF" stroke-width="0.52" stroke-miterlimit="10"/>
<path d="M424.43 171.569H427.346C428.272 171.569 429.38 171.569 430.668 171.569H434.985C438.149 171.704 441.766 171.569 445.789 171.93C449.812 172.292 453.925 172.518 458.129 172.902L470.38 174.461L481.003 176.36C484.122 176.811 486.653 177.557 488.439 177.941L491.264 178.574C491.264 178.574 495.287 186.664 498.542 195.093C500.192 199.251 501.751 203.273 502.791 206.392C503.83 209.51 504.509 211.657 504.509 211.657L506.95 212.493C508.509 213.081 510.927 213.668 513.73 214.911C521.847 217.983 529.785 221.506 537.507 225.464C561.083 237.492 582.475 253.388 600.793 272.49C610.591 282.661 619.471 293.679 627.327 305.415C634.162 315.627 640.164 326.373 645.273 337.548L648.483 344.599C649.364 346.859 650.223 349.118 651.014 351.084C652.732 355.129 653.817 358.79 654.856 361.751C655.354 363.242 655.806 364.553 656.213 365.705C656.619 366.858 656.823 367.965 657.071 368.688L657.772 371.174L661.208 372.439C663.468 373.275 666.655 374.473 670.248 376.077C679.551 380.054 688.607 384.582 697.371 389.636C699.834 391.014 702.275 392.461 704.694 393.907C707.112 395.353 709.214 396.867 711.474 398.427C715.995 401.364 720.131 404.279 723.679 406.878C730.573 412.075 735.184 415.917 735.184 415.917" stroke="#5FC6FF" stroke-width="0.52" stroke-miterlimit="10"/>
<path d="M345.911 192.562L341.255 194.121L329.253 198.889C317.252 204.098 305.629 210.139 294.469 216.967C283.34 223.862 272.761 231.606 262.826 240.13L257.289 244.921C255.661 246.344 254.328 247.723 253.198 248.785L249.627 252.175C249.627 252.175 247.48 251.858 244.247 251.519C241.015 251.18 236.789 250.864 232.404 250.57C228.019 250.276 223.544 250.096 220.267 250.118H214.729L212.627 252.536L210.209 255.316L207.271 259.089C202.75 264.513 197.303 272.06 192.15 279.834C190.907 281.8 189.641 283.766 188.398 285.687C187.155 287.608 185.935 289.528 184.872 291.449C182.725 295.246 180.601 298.748 178.973 301.822L173.639 312.216C173.639 312.216 172.803 312.397 171.379 312.804L165.638 314.544C163.265 315.267 160.462 316.171 157.434 317.165C154.405 318.16 151.128 319.29 148.009 320.532C141.703 322.973 135.216 325.639 130.402 327.809L122.514 331.537C122.514 331.537 121.994 333.142 121.044 335.899C120.592 337.3 119.96 338.972 119.394 340.915C118.829 342.859 118.219 345.096 117.519 347.514C116.818 349.932 116.095 352.531 115.258 355.31C114.422 358.09 113.925 361.05 113.224 364.123C111.687 370.202 110.58 376.801 109.404 383.399C108.772 386.676 108.387 389.998 107.958 393.274C107.528 396.551 107.144 399.76 106.737 402.856C106.263 409.115 105.811 414.945 105.427 419.962L104.997 436.662" stroke="#5FC6FF" stroke-width="0.52" stroke-miterlimit="10"/>
<path d="M69.1956 427.171C69.1956 427.171 69.1956 425.611 69.3086 422.922C69.3086 421.566 69.3086 419.917 69.4442 418.018C69.5798 416.12 69.738 414.019 69.9188 411.691C70.4838 402.426 71.8174 390.065 73.8063 377.795C74.3488 374.744 74.9138 371.671 75.4337 368.756L76.2473 364.236C76.5864 362.767 76.9028 361.321 77.2192 359.897C78.5528 354.225 79.6602 348.915 80.9033 344.418L85.1525 329.481C85.1525 329.481 81.0163 320.306 77.1288 310.567C75.1172 305.663 73.5351 300.827 72.2242 297.008L70.0996 290.726L70.9359 288.67C71.4783 287.314 72.2242 285.325 73.3543 282.862C74.4844 280.399 75.8179 277.416 77.3774 273.981L79.8637 268.513L82.8697 262.569C85.0169 258.457 87.1867 253.914 89.8085 249.282C92.4303 244.649 95.2782 239.836 98.1712 234.819L107.822 219.769C111.28 214.775 114.897 209.759 118.49 204.742C132.041 186.574 147.168 169.635 163.694 154.123C177.255 141.423 186.974 133.785 186.974 133.785" stroke="#5FC6FF" stroke-width="0.52" stroke-miterlimit="10"/>
<path d="M159.242 421.521L159.965 411.962C160.101 409.07 160.62 405.771 161.05 402.2C161.479 398.63 161.909 394.811 162.7 391.059C163.491 387.308 163.92 383.489 164.757 380.009C165.593 376.529 166.316 373.23 167.017 370.45C167.717 367.671 168.418 365.366 168.825 363.671L169.548 361.14C169.548 361.14 172.667 359.762 177.255 357.864C181.844 355.965 188.33 353.728 194.501 351.694C200.671 349.661 207.158 348.034 211.769 346.881C214.029 346.316 216.018 345.864 217.419 345.593L219.679 345.141L221.013 342.203C221.894 340.373 222.911 337.684 224.629 334.52C226.347 331.357 227.952 327.741 230.279 323.922L233.647 318.024C234.845 316.058 236.179 314.092 237.422 312.103C239.84 308.081 242.733 304.352 245.242 300.805C247.751 297.257 250.508 294.025 252.61 291.268L260.295 282.229" stroke="#5FC6FF" stroke-width="0.52" stroke-miterlimit="10"/>
<path d="M708.468 234.367L714.119 242.322C715.882 244.582 717.622 247.632 719.634 250.683C721.645 253.734 723.815 257.01 725.714 260.4C729.624 267.179 733.579 273.958 736.133 279.201L739.342 285.506C740.133 287.02 740.563 287.901 740.563 287.901C740.563 287.901 744.202 289.325 749.739 291.652C755.277 293.98 762.803 297.211 770.081 300.917C773.743 302.77 777.427 304.669 780.907 306.499C784.388 308.329 787.439 310.205 790.174 311.787C795.576 314.973 799.215 317.233 799.215 317.233C799.215 317.233 799.848 319.041 800.842 322.204C801.837 325.368 803.102 329.978 804.617 335.447C805.001 336.825 805.408 338.249 805.815 339.74C806.222 341.232 806.538 342.768 806.9 344.26C807.645 347.423 808.414 350.79 809.16 354.248C809.906 357.705 810.674 361.344 811.42 365.027C812.166 368.71 812.753 372.439 813.409 376.168C814.494 383.693 815.443 391.218 816.234 398.291C817.025 405.364 817.319 411.985 817.635 417.634C817.929 428.933 818.11 436.548 818.11 436.548" stroke="#5FC6FF" stroke-width="0.52" stroke-miterlimit="10"/>
<path d="M242.733 112.137L247.638 109.312C250.712 107.459 255.322 105.132 260.815 102.33C274.29 95.4828 288.162 89.446 302.357 84.2515C310.177 81.6527 317.907 78.7602 325.388 76.7942L336.124 73.7662L345.843 71.5064L354.048 69.6308C356.511 69.1336 358.681 68.7721 360.444 68.4331L366.027 67.4388L370.886 61.5408C373.824 58.0156 377.915 53.5865 382.187 49.0218C386.459 44.457 390.821 39.9827 394.234 36.7512L399.952 31.3278L405.286 30.921C408.676 30.6047 413.536 30.5143 419.367 30.3561L428.77 30.1301C432.115 30.1301 435.55 30.1301 439.279 30.3109L450.58 30.6273C454.4 30.8532 458.288 31.1696 462.175 31.4408C466.063 31.7119 469.95 31.9605 473.747 32.4351L484.935 33.8587C492.191 34.6722 498.903 36.1185 504.667 36.9998L512.532 38.4461L518.544 39.8245L523.765 41.0222" stroke="#5FC6FF" stroke-width="0.52" stroke-miterlimit="10"/>
<path d="M480.937 63.5876L470.935 62.5775C469.946 62.4777 469.064 63.198 468.964 64.1865L468.752 66.2894C468.652 67.2779 469.372 68.1601 470.361 68.2599L480.363 69.27C481.351 69.3699 482.234 68.6495 482.334 67.6611L482.546 65.5581C482.646 64.5697 481.926 63.6875 480.937 63.5876Z" fill="#60C8FF"/>
<path d="M337.066 116.964L327.392 119.876C326.436 120.164 325.894 121.173 326.182 122.129L326.795 124.163C327.083 125.119 328.092 125.66 329.048 125.372L338.722 122.46C339.678 122.172 340.22 121.163 339.932 120.207L339.319 118.173C339.031 117.217 338.022 116.676 337.066 116.964Z" fill="#60C8FF"/>
<path d="M58.014 531.476L55.672 519.178C55.4385 517.952 54.2552 517.147 53.029 517.381L50.4535 517.871C49.2272 518.105 48.4224 519.288 48.6559 520.514L50.9979 532.812C51.2314 534.038 52.4147 534.843 53.6409 534.609L56.2164 534.119C57.4427 533.885 58.2475 532.702 58.014 531.476Z" fill="#60C8FF"/>
<path d="M417.801 742.392L408.685 741.863C407.776 741.81 406.995 742.505 406.943 743.414L406.831 745.332C406.779 746.242 407.473 747.022 408.383 747.074L417.499 747.603C418.408 747.656 419.189 746.961 419.241 746.052L419.353 744.134C419.405 743.225 418.711 742.445 417.801 742.392Z" fill="#60C8FF"/>
<path d="M752.031 497.157L753.612 488.051C753.768 487.153 753.167 486.299 752.269 486.143L750.354 485.811C749.456 485.655 748.602 486.256 748.446 487.154L746.865 496.26C746.709 497.158 747.31 498.012 748.208 498.167L750.123 498.5C751.021 498.656 751.875 498.054 752.031 497.157Z" fill="#60C8FF"/>
<path d="M659.097 199.041L652.184 192.906C651.502 192.301 650.459 192.363 649.854 193.044L648.564 194.498C647.959 195.179 648.021 196.222 648.703 196.827L655.617 202.962C656.298 203.566 657.341 203.504 657.946 202.823L659.236 201.369C659.841 200.688 659.779 199.645 659.097 199.041Z" fill="#60C8FF"/>
<path d="M628.594 730.25L636.21 725.011C636.961 724.494 637.15 723.467 636.634 722.717L635.532 721.116C635.016 720.365 633.988 720.175 633.238 720.692L625.622 725.931C624.871 726.447 624.681 727.474 625.198 728.225L626.3 729.826C626.816 730.576 627.844 730.766 628.594 730.25Z" fill="#60C8FF"/>
<path d="M125.396 191.619L119.704 198.901C119.143 199.619 119.27 200.656 119.988 201.217L121.519 202.414C122.237 202.975 123.274 202.848 123.835 202.13L129.528 194.848C130.089 194.13 129.962 193.093 129.244 192.532L127.712 191.335C126.994 190.774 125.957 190.901 125.396 191.619Z" fill="#60C8FF"/>
<path d="M190.432 133.718C190.432 134.442 190.218 135.15 189.815 135.752C189.413 136.354 188.841 136.823 188.172 137.1C187.503 137.377 186.767 137.449 186.057 137.308C185.346 137.167 184.694 136.818 184.182 136.306C183.67 135.794 183.321 135.142 183.18 134.432C183.038 133.722 183.111 132.986 183.388 132.317C183.665 131.648 184.135 131.076 184.737 130.674C185.339 130.272 186.047 130.057 186.771 130.057C187.742 130.057 188.673 130.443 189.36 131.129C190.047 131.816 190.432 132.747 190.432 133.718Z" fill="#5FC6FF"/>
<path d="M528.331 123.074C528.335 123.799 528.125 124.509 527.725 125.114C527.325 125.719 526.755 126.192 526.086 126.472C525.418 126.753 524.681 126.829 523.969 126.69C523.257 126.551 522.603 126.205 522.089 125.693C521.574 125.182 521.223 124.53 521.08 123.819C520.937 123.109 521.008 122.371 521.285 121.701C521.561 121.031 522.03 120.458 522.633 120.055C523.236 119.651 523.944 119.436 524.67 119.436C525.637 119.436 526.565 119.819 527.251 120.5C527.937 121.182 528.325 122.107 528.331 123.074Z" fill="#5FC6FF"/>
<path d="M126.537 266.275C126.537 266.999 126.322 267.707 125.92 268.309C125.517 268.911 124.945 269.38 124.276 269.658C123.607 269.935 122.871 270.007 122.161 269.866C121.451 269.725 120.798 269.376 120.286 268.864C119.774 268.352 119.425 267.7 119.284 266.99C119.143 266.279 119.215 265.543 119.492 264.874C119.769 264.206 120.239 263.634 120.841 263.232C121.443 262.829 122.151 262.615 122.875 262.615C123.357 262.612 123.834 262.704 124.28 262.887C124.725 263.07 125.13 263.34 125.471 263.68C125.812 264.021 126.081 264.425 126.264 264.871C126.447 265.316 126.54 265.794 126.537 266.275Z" fill="#5FC6FF"/>
<path d="M710.729 231.362C710.729 232.087 710.513 232.796 710.11 233.398C709.706 234.001 709.133 234.47 708.463 234.746C707.793 235.023 707.055 235.094 706.344 234.951C705.633 234.808 704.981 234.457 704.47 233.943C703.959 233.428 703.612 232.774 703.473 232.062C703.334 231.351 703.41 230.614 703.691 229.945C703.971 229.277 704.444 228.707 705.049 228.307C705.654 227.908 706.365 227.697 707.09 227.701C708.057 227.707 708.982 228.096 709.664 228.781C710.346 229.467 710.729 230.395 710.729 231.362Z" fill="#5FC6FF"/>
<path d="M555.634 106.826C555.634 107.551 555.419 108.26 555.015 108.863C554.612 109.465 554.039 109.934 553.368 110.211C552.698 110.487 551.961 110.558 551.25 110.415C550.539 110.272 549.887 109.921 549.375 109.407C548.864 108.893 548.517 108.238 548.379 107.527C548.24 106.815 548.316 106.078 548.596 105.41C548.877 104.741 549.35 104.171 549.955 103.772C550.56 103.372 551.27 103.161 551.995 103.166C552.475 103.166 552.95 103.26 553.393 103.445C553.836 103.629 554.238 103.899 554.576 104.239C554.914 104.579 555.182 104.983 555.364 105.427C555.545 105.871 555.637 106.347 555.634 106.826Z" fill="#5FC6FF"/>
<path d="M700.173 592.201C700.173 592.925 699.959 593.633 699.556 594.235C699.154 594.837 698.582 595.306 697.913 595.583C697.244 595.86 696.508 595.933 695.798 595.792C695.087 595.65 694.435 595.302 693.923 594.79C693.411 594.278 693.062 593.625 692.921 592.915C692.779 592.205 692.852 591.469 693.129 590.8C693.406 590.131 693.875 589.559 694.478 589.157C695.08 588.755 695.788 588.54 696.512 588.54C697.483 588.54 698.414 588.926 699.101 589.613C699.788 590.299 700.173 591.23 700.173 592.201Z" fill="#5FC6FF"/>
<path d="M704.875 449.248C704.875 449.972 704.66 450.68 704.257 451.282C703.855 451.884 703.283 452.354 702.614 452.631C701.945 452.908 701.209 452.98 700.499 452.839C699.788 452.698 699.136 452.349 698.624 451.837C698.112 451.325 697.763 450.673 697.622 449.963C697.481 449.253 697.553 448.516 697.83 447.848C698.107 447.179 698.577 446.607 699.179 446.205C699.781 445.802 700.489 445.588 701.213 445.588C702.182 445.594 703.11 445.981 703.796 446.666C704.481 447.352 704.869 448.279 704.875 449.248Z" fill="#5FC6FF"/>
<path d="M441.607 701.687C441.607 702.412 441.392 703.12 440.989 703.723C440.585 704.325 440.012 704.795 439.342 705.071C438.672 705.347 437.934 705.419 437.223 705.275C436.512 705.132 435.86 704.781 435.349 704.267C434.838 703.753 434.491 703.099 434.352 702.387C434.213 701.675 434.289 700.939 434.57 700.27C434.85 699.602 435.323 699.031 435.928 698.632C436.533 698.232 437.243 698.021 437.969 698.026C438.448 698.026 438.923 698.121 439.366 698.305C439.809 698.489 440.212 698.759 440.55 699.1C440.888 699.44 441.155 699.844 441.337 700.288C441.519 700.732 441.61 701.207 441.607 701.687Z" fill="#5FC6FF"/>
<path d="M312.935 766.203C312.939 766.928 312.728 767.638 312.329 768.243C311.929 768.848 311.359 769.321 310.69 769.601C310.022 769.882 309.285 769.957 308.573 769.819C307.861 769.68 307.207 769.333 306.692 768.822C306.178 768.311 305.827 767.659 305.684 766.948C305.541 766.237 305.612 765.5 305.888 764.83C306.165 764.16 306.634 763.587 307.237 763.183C307.839 762.78 308.548 762.565 309.273 762.565C310.24 762.565 311.168 762.947 311.854 763.629C312.54 764.311 312.929 765.236 312.935 766.203Z" fill="#5FC6FF"/>
<path d="M467.374 765.141C467.374 765.866 467.158 766.575 466.755 767.177C466.352 767.78 465.778 768.249 465.108 768.525C464.438 768.802 463.7 768.873 462.989 768.73C462.279 768.587 461.626 768.236 461.115 767.721C460.604 767.207 460.257 766.553 460.118 765.841C459.979 765.129 460.055 764.393 460.336 763.724C460.616 763.056 461.089 762.485 461.694 762.086C462.299 761.686 463.01 761.476 463.735 761.48C464.702 761.486 465.627 761.874 466.309 762.56C466.991 763.246 467.374 764.174 467.374 765.141Z" fill="#5FC6FF"/>
<path d="M674.701 741.029C674.701 741.753 674.486 742.461 674.084 743.063C673.682 743.665 673.11 744.134 672.441 744.411C671.772 744.688 671.035 744.761 670.325 744.619C669.615 744.478 668.962 744.13 668.45 743.618C667.938 743.106 667.59 742.453 667.448 741.743C667.307 741.033 667.38 740.297 667.657 739.628C667.934 738.959 668.403 738.387 669.005 737.985C669.607 737.583 670.315 737.368 671.039 737.368C671.52 737.368 671.996 737.463 672.441 737.647C672.885 737.831 673.288 738.1 673.628 738.44C673.968 738.78 674.238 739.184 674.422 739.628C674.606 740.072 674.701 740.548 674.701 741.029Z" fill="#5FC6FF"/>
<path d="M46.0513 433.43C46.0513 434.154 45.8366 434.862 45.4342 435.464C45.0319 436.066 44.4601 436.535 43.791 436.812C43.122 437.089 42.3857 437.162 41.6755 437.021C40.9652 436.879 40.3128 436.531 39.8007 436.019C39.2886 435.507 38.9399 434.854 38.7986 434.144C38.6573 433.434 38.7299 432.698 39.007 432.029C39.2841 431.36 39.7534 430.789 40.3556 430.386C40.9577 429.984 41.6656 429.769 42.3898 429.769C43.3591 429.775 44.2869 430.163 44.9723 430.848C45.6577 431.533 46.0454 432.461 46.0513 433.43Z" fill="#5FC6FF"/>
<path d="M157.298 641.713C157.298 642.437 157.083 643.144 156.681 643.746C156.278 644.348 155.707 644.818 155.038 645.095C154.369 645.372 153.632 645.444 152.922 645.303C152.212 645.162 151.559 644.813 151.047 644.301C150.535 643.789 150.186 643.137 150.045 642.427C149.904 641.717 149.976 640.981 150.254 640.312C150.531 639.643 151 639.071 151.602 638.669C152.204 638.266 152.912 638.052 153.636 638.052C154.117 638.052 154.593 638.146 155.038 638.33C155.482 638.514 155.885 638.784 156.225 639.124C156.565 639.464 156.835 639.867 157.019 640.312C157.203 640.756 157.298 641.232 157.298 641.713Z" fill="#5FC6FF"/>
<path d="M156.123 686.795C156.123 687.519 155.908 688.227 155.506 688.829C155.103 689.431 154.531 689.9 153.862 690.177C153.193 690.454 152.457 690.527 151.747 690.385C151.036 690.244 150.384 689.895 149.872 689.383C149.36 688.871 149.011 688.219 148.87 687.509C148.729 686.799 148.801 686.063 149.078 685.394C149.355 684.725 149.825 684.153 150.427 683.751C151.029 683.349 151.737 683.134 152.461 683.134C153.43 683.14 154.358 683.528 155.044 684.213C155.729 684.898 156.117 685.826 156.123 686.795Z" stroke="#5FC6FF" stroke-width="0.52" stroke-miterlimit="10"/>
<path d="M125.881 455.034C125.886 455.759 125.675 456.469 125.275 457.073C124.876 457.678 124.305 458.151 123.637 458.432C122.968 458.712 122.231 458.788 121.519 458.649C120.808 458.511 120.153 458.164 119.639 457.653C119.124 457.142 118.773 456.489 118.63 455.779C118.487 455.068 118.558 454.331 118.835 453.66C119.111 452.99 119.581 452.417 120.183 452.014C120.786 451.611 121.495 451.395 122.22 451.395C122.7 451.392 123.175 451.484 123.619 451.666C124.063 451.847 124.467 452.115 124.808 452.453C125.148 452.791 125.418 453.193 125.602 453.636C125.786 454.079 125.881 454.554 125.881 455.034V455.034Z" stroke="#5FC6FF" stroke-width="0.52" stroke-miterlimit="10"/>
<path d="M352.94 190.686C352.94 191.411 352.725 192.12 352.322 192.722C351.918 193.325 351.345 193.794 350.675 194.071C350.004 194.347 349.267 194.418 348.556 194.275C347.845 194.132 347.193 193.781 346.682 193.267C346.17 192.753 345.824 192.098 345.685 191.387C345.546 190.675 345.622 189.938 345.902 189.27C346.183 188.601 346.656 188.031 347.261 187.631C347.866 187.232 348.576 187.021 349.301 187.025C349.781 187.025 350.256 187.12 350.699 187.305C351.142 187.489 351.544 187.759 351.882 188.099C352.221 188.439 352.488 188.843 352.67 189.287C352.851 189.731 352.943 190.207 352.94 190.686Z" stroke="#5FC6FF" stroke-width="0.52" stroke-miterlimit="10"/>
<path d="M530.659 42.2875C530.659 43.0116 530.444 43.7194 530.042 44.3214C529.64 44.9234 529.068 45.3926 528.399 45.6697C527.73 45.9468 526.993 46.0193 526.283 45.878C525.573 45.7368 524.92 45.3881 524.408 44.8761C523.896 44.3642 523.548 43.7119 523.406 43.0017C523.265 42.2916 523.338 41.5555 523.615 40.8866C523.892 40.2177 524.361 39.6459 524.963 39.2437C525.565 38.8414 526.273 38.6267 526.997 38.6267C527.969 38.6267 528.9 39.0124 529.587 39.6989C530.273 40.3855 530.659 41.3166 530.659 42.2875V42.2875Z" stroke="#5FC6FF" stroke-width="0.52" stroke-miterlimit="10"/>
<path d="M424.769 171.704C424.773 172.429 424.563 173.139 424.163 173.744C423.763 174.349 423.193 174.822 422.524 175.102C421.856 175.383 421.119 175.459 420.407 175.32C419.695 175.181 419.041 174.834 418.526 174.323C418.012 173.812 417.661 173.16 417.518 172.449C417.375 171.739 417.446 171.001 417.723 170.331C417.999 169.661 418.468 169.088 419.071 168.685C419.674 168.281 420.382 168.066 421.107 168.066C421.587 168.063 422.063 168.155 422.507 168.336C422.951 168.518 423.355 168.785 423.695 169.124C424.035 169.462 424.306 169.864 424.49 170.307C424.674 170.75 424.769 171.225 424.769 171.704V171.704Z" stroke="#5FC6FF" stroke-width="0.52" stroke-miterlimit="10"/>
<path d="M711.565 186.167C711.565 186.892 711.349 187.6 710.946 188.203C710.543 188.805 709.97 189.275 709.299 189.551C708.629 189.827 707.891 189.899 707.181 189.755C706.47 189.612 705.817 189.261 705.306 188.747C704.795 188.233 704.448 187.579 704.309 186.867C704.171 186.155 704.246 185.419 704.527 184.75C704.808 184.082 705.28 183.511 705.885 183.112C706.491 182.712 707.201 182.501 707.926 182.506C708.893 182.512 709.819 182.9 710.5 183.586C711.182 184.272 711.565 185.2 711.565 186.167V186.167Z" stroke="#5FC6FF" stroke-width="0.52" stroke-miterlimit="10"/>
<path d="M687.72 284.715C687.724 285.441 687.513 286.152 687.112 286.757C686.711 287.363 686.14 287.835 685.47 288.115C684.8 288.395 684.062 288.47 683.349 288.329C682.637 288.189 681.983 287.839 681.469 287.326C680.956 286.813 680.607 286.158 680.466 285.446C680.325 284.734 680.4 283.996 680.68 283.326C680.96 282.656 681.433 282.085 682.038 281.684C682.644 281.284 683.355 281.072 684.081 281.077C684.559 281.077 685.032 281.171 685.473 281.354C685.915 281.537 686.316 281.804 686.654 282.142C686.992 282.48 687.26 282.881 687.443 283.323C687.626 283.764 687.72 284.237 687.72 284.715V284.715Z" stroke="#5FC6FF" stroke-width="0.52" stroke-miterlimit="10"/>
<path d="M794.469 442.853C794.469 443.577 794.254 444.285 793.851 444.887C793.449 445.489 792.877 445.958 792.208 446.235C791.539 446.512 790.803 446.585 790.093 446.444C789.382 446.302 788.73 445.954 788.218 445.442C787.706 444.93 787.357 444.278 787.216 443.567C787.075 442.857 787.147 442.121 787.424 441.452C787.701 440.783 788.171 440.212 788.773 439.809C789.375 439.407 790.083 439.192 790.807 439.192C791.778 439.192 792.709 439.578 793.396 440.265C794.083 440.951 794.469 441.882 794.469 442.853V442.853Z" stroke="#5FC6FF" stroke-width="0.52" stroke-miterlimit="10"/>
<path d="M740.518 322.024C740.522 322.749 740.311 323.459 739.912 324.064C739.512 324.669 738.942 325.141 738.273 325.422C737.604 325.703 736.868 325.778 736.156 325.64C735.444 325.501 734.79 325.154 734.275 324.643C733.761 324.132 733.41 323.48 733.267 322.769C733.124 322.058 733.195 321.321 733.471 320.651C733.748 319.981 734.217 319.407 734.82 319.004C735.422 318.601 736.131 318.386 736.856 318.386C737.336 318.383 737.812 318.475 738.256 318.656C738.7 318.838 739.104 319.105 739.444 319.443C739.784 319.781 740.054 320.183 740.239 320.626C740.423 321.069 740.518 321.544 740.518 322.024Z" stroke="#5FC6FF" stroke-width="0.52" stroke-miterlimit="10"/>
<path d="M515.154 682.004C515.154 682.728 514.939 683.436 514.537 684.038C514.135 684.64 513.563 685.109 512.894 685.386C512.225 685.663 511.489 685.736 510.778 685.595C510.068 685.453 509.416 685.105 508.904 684.593C508.391 684.081 508.043 683.428 507.901 682.718C507.76 682.008 507.833 681.272 508.11 680.603C508.387 679.934 508.856 679.362 509.458 678.96C510.06 678.558 510.768 678.343 511.493 678.343C512.464 678.343 513.395 678.729 514.082 679.415C514.768 680.102 515.154 681.033 515.154 682.004V682.004Z" stroke="#5FC6FF" stroke-width="0.52" stroke-miterlimit="10"/>
<path style="mix-blend-mode:color-dodge" d="M186.274 179.839C211.751 179.839 232.404 159.19 232.404 133.718C232.404 108.245 211.751 87.5959 186.274 87.5959C160.796 87.5959 140.143 108.245 140.143 133.718C140.143 159.19 160.796 179.839 186.274 179.839Z" fill="url(#paint0_radial_202_18)"/>
<path style="mix-blend-mode:screen" d="M186.274 179.839C211.751 179.839 232.404 159.19 232.404 133.718C232.404 108.245 211.751 87.5959 186.274 87.5959C160.796 87.5959 140.143 108.245 140.143 133.718C140.143 159.19 160.796 179.839 186.274 179.839Z" fill="url(#paint1_radial_202_18)"/>
<path style="mix-blend-mode:screen" d="M694.989 330.728C719.347 323.26 733.037 297.463 725.567 273.111C718.097 248.758 692.295 235.07 667.938 242.539C643.581 250.008 629.891 275.804 637.361 300.157C644.831 324.51 670.632 338.197 694.989 330.728Z" fill="url(#paint2_radial_202_18)"/>
<path style="mix-blend-mode:color-dodge" d="M570.229 130.429C574.285 105.281 557.183 81.608 532.03 77.5531C506.878 73.4981 483.2 90.5969 479.145 115.744C475.089 140.892 492.191 164.565 517.343 168.62C542.496 172.675 566.173 155.576 570.229 130.429Z" fill="url(#paint3_radial_202_18)"/>
<path style="mix-blend-mode:color-dodge" d="M685.527 330.385C711.004 330.385 731.658 309.735 731.658 284.263C731.658 258.791 711.004 238.141 685.527 238.141C660.05 238.141 639.397 258.791 639.397 284.263C639.397 309.735 660.05 330.385 685.527 330.385Z" fill="url(#paint4_radial_202_18)"/>
<path style="mix-blend-mode:color-dodge" d="M671.039 787.151C696.517 787.151 717.17 766.502 717.17 741.029C717.17 715.557 696.517 694.907 671.039 694.907C645.562 694.907 624.909 715.557 624.909 741.029C624.909 766.502 645.562 787.151 671.039 787.151Z" fill="url(#paint5_radial_202_18)"/>
<path style="mix-blend-mode:color-dodge" d="M152.461 732.917C177.938 732.917 198.592 712.267 198.592 686.795C198.592 661.323 177.938 640.673 152.461 640.673C126.984 640.673 106.331 661.323 106.331 686.795C106.331 712.267 126.984 732.917 152.461 732.917Z" fill="url(#paint6_radial_202_18)"/>
<path style="mix-blend-mode:color-dodge" d="M122.22 501.2C147.697 501.2 168.35 480.551 168.35 455.079C168.35 429.606 147.697 408.957 122.22 408.957C96.7427 408.957 76.0894 429.606 76.0894 455.079C76.0894 480.551 96.7427 501.2 122.22 501.2Z" fill="url(#paint7_radial_202_18)"/>
<path style="mix-blend-mode:color-dodge" d="M63.5763 454.606C75.2804 442.904 75.2803 423.932 63.5763 412.23C51.8722 400.528 32.8962 400.528 21.1921 412.23C9.48804 423.932 9.48801 442.904 21.1921 454.606C32.8961 466.308 51.8722 466.308 63.5763 454.606Z" fill="url(#paint8_radial_202_18)"/>
<path style="mix-blend-mode:color-dodge" d="M152.147 273.191C155.972 257.09 146.018 240.938 129.913 237.114C113.809 233.29 97.6539 243.243 93.8292 259.344C90.0046 275.445 99.959 291.597 116.063 295.421C132.167 299.245 148.323 289.293 152.147 273.191Z" fill="url(#paint9_radial_202_18)"/>
<path style="mix-blend-mode:color-dodge" d="M548.197 63.5643C559.901 51.8625 559.901 32.89 548.197 21.1882C536.493 9.48631 517.517 9.48633 505.813 21.1882C494.109 32.89 494.109 51.8624 505.813 63.5643C517.517 75.2662 536.493 75.2662 548.197 63.5643Z" fill="url(#paint10_radial_202_18)"/>
<path style="mix-blend-mode:color-dodge" d="M735.954 239.302C740.319 223.339 730.914 206.861 714.948 202.497C698.982 198.133 682.5 207.536 678.135 223.499C673.77 239.462 683.175 255.941 699.141 260.305C715.107 264.669 731.589 255.266 735.954 239.302Z" fill="url(#paint11_radial_202_18)"/>
<defs>
<radialGradient id="paint0_radial_202_18" cx="0" cy="0" r="1" gradientUnits="userSpaceOnUse" gradientTransform="translate(186.274 133.718) scale(46.1305 46.1218)">
<stop stop-color="#27AAE1"/>
<stop offset="0.03" stop-color="#27AAE1" stop-opacity="0.88"/>
<stop offset="0.07" stop-color="#27AAE1" stop-opacity="0.7"/>
<stop offset="0.12" stop-color="#27AAE1" stop-opacity="0.53"/>
<stop offset="0.17" stop-color="#27AAE1" stop-opacity="0.39"/>
<stop offset="0.23" stop-color="#27AAE1" stop-opacity="0.26"/>
<stop offset="0.3" stop-color="#27AAE1" stop-opacity="0.17"/>
<stop offset="0.38" stop-color="#27AAE1" stop-opacity="0.09"/>
<stop offset="0.48" stop-color="#27AAE1" stop-opacity="0.04"/>
<stop offset="0.62" stop-color="#27AAE1" stop-opacity="0.01"/>
<stop offset="1" stop-color="#27AAE1" stop-opacity="0"/>
</radialGradient>
<radialGradient id="paint1_radial_202_18" cx="0" cy="0" r="1" gradientUnits="userSpaceOnUse" gradientTransform="translate(186.274 133.718) scale(46.1305 46.1218)">
<stop stop-color="#27AAE1"/>
<stop offset="0.03" stop-color="#27AAE1" stop-opacity="0.88"/>
<stop offset="0.07" stop-color="#27AAE1" stop-opacity="0.7"/>
<stop offset="0.12" stop-color="#27AAE1" stop-opacity="0.53"/>
<stop offset="0.17" stop-color="#27AAE1" stop-opacity="0.39"/>
<stop offset="0.23" stop-color="#27AAE1" stop-opacity="0.26"/>
<stop offset="0.3" stop-color="#27AAE1" stop-opacity="0.17"/>
<stop offset="0.38" stop-color="#27AAE1" stop-opacity="0.09"/>
<stop offset="0.48" stop-color="#27AAE1" stop-opacity="0.04"/>
<stop offset="0.62" stop-color="#27AAE1" stop-opacity="0.01"/>
<stop offset="1" stop-color="#27AAE1" stop-opacity="0"/>
</radialGradient>
<radialGradient id="paint2_radial_202_18" cx="0" cy="0" r="1" gradientUnits="userSpaceOnUse" gradientTransform="translate(681.43 286.717) scale(46.1305 46.1218)">
<stop stop-color="#27AAE1"/>
<stop offset="0.03" stop-color="#27AAE1" stop-opacity="0.88"/>
<stop offset="0.07" stop-color="#27AAE1" stop-opacity="0.7"/>
<stop offset="0.12" stop-color="#27AAE1" stop-opacity="0.53"/>
<stop offset="0.17" stop-color="#27AAE1" stop-opacity="0.39"/>
<stop offset="0.23" stop-color="#27AAE1" stop-opacity="0.26"/>
<stop offset="0.3" stop-color="#27AAE1" stop-opacity="0.17"/>
<stop offset="0.38" stop-color="#27AAE1" stop-opacity="0.09"/>
<stop offset="0.48" stop-color="#27AAE1" stop-opacity="0.04"/>
<stop offset="0.62" stop-color="#27AAE1" stop-opacity="0.01"/>
<stop offset="1" stop-color="#27AAE1" stop-opacity="0"/>
</radialGradient>
<radialGradient id="paint3_radial_202_18" cx="0" cy="0" r="1" gradientUnits="userSpaceOnUse" gradientTransform="translate(524.704 123.061) scale(46.1305 46.1218)">
<stop stop-color="#27AAE1"/>
<stop offset="0.03" stop-color="#27AAE1" stop-opacity="0.88"/>
<stop offset="0.07" stop-color="#27AAE1" stop-opacity="0.7"/>
<stop offset="0.12" stop-color="#27AAE1" stop-opacity="0.53"/>
<stop offset="0.17" stop-color="#27AAE1" stop-opacity="0.39"/>
<stop offset="0.23" stop-color="#27AAE1" stop-opacity="0.26"/>
<stop offset="0.3" stop-color="#27AAE1" stop-opacity="0.17"/>
<stop offset="0.38" stop-color="#27AAE1" stop-opacity="0.09"/>
<stop offset="0.48" stop-color="#27AAE1" stop-opacity="0.04"/>
<stop offset="0.62" stop-color="#27AAE1" stop-opacity="0.01"/>
<stop offset="1" stop-color="#27AAE1" stop-opacity="0"/>
</radialGradient>
<radialGradient id="paint4_radial_202_18" cx="0" cy="0" r="1" gradientUnits="userSpaceOnUse" gradientTransform="translate(685.527 284.263) scale(46.1305 46.1218)">
<stop stop-color="#27AAE1"/>
<stop offset="0.03" stop-color="#27AAE1" stop-opacity="0.88"/>
<stop offset="0.07" stop-color="#27AAE1" stop-opacity="0.7"/>
<stop offset="0.12" stop-color="#27AAE1" stop-opacity="0.53"/>
<stop offset="0.17" stop-color="#27AAE1" stop-opacity="0.39"/>
<stop offset="0.23" stop-color="#27AAE1" stop-opacity="0.26"/>
<stop offset="0.3" stop-color="#27AAE1" stop-opacity="0.17"/>
<stop offset="0.38" stop-color="#27AAE1" stop-opacity="0.09"/>
<stop offset="0.48" stop-color="#27AAE1" stop-opacity="0.04"/>
<stop offset="0.62" stop-color="#27AAE1" stop-opacity="0.01"/>
<stop offset="1" stop-color="#27AAE1" stop-opacity="0"/>
</radialGradient>
<radialGradient id="paint5_radial_202_18" cx="0" cy="0" r="1" gradientUnits="userSpaceOnUse" gradientTransform="translate(671.039 741.029) scale(46.1305 46.1218)">
<stop stop-color="#27AAE1"/>
<stop offset="0.03" stop-color="#27AAE1" stop-opacity="0.88"/>
<stop offset="0.07" stop-color="#27AAE1" stop-opacity="0.7"/>
<stop offset="0.12" stop-color="#27AAE1" stop-opacity="0.53"/>
<stop offset="0.17" stop-color="#27AAE1" stop-opacity="0.39"/>
<stop offset="0.23" stop-color="#27AAE1" stop-opacity="0.26"/>
<stop offset="0.3" stop-color="#27AAE1" stop-opacity="0.17"/>
<stop offset="0.38" stop-color="#27AAE1" stop-opacity="0.09"/>
<stop offset="0.48" stop-color="#27AAE1" stop-opacity="0.04"/>
<stop offset="0.62" stop-color="#27AAE1" stop-opacity="0.01"/>
<stop offset="1" stop-color="#27AAE1" stop-opacity="0"/>
</radialGradient>
<radialGradient id="paint6_radial_202_18" cx="0" cy="0" r="1" gradientUnits="userSpaceOnUse" gradientTransform="translate(152.461 686.795) scale(46.1305 46.1218)">
<stop stop-color="#27AAE1"/>
<stop offset="0.03" stop-color="#27AAE1" stop-opacity="0.88"/>
<stop offset="0.07" stop-color="#27AAE1" stop-opacity="0.7"/>
<stop offset="0.12" stop-color="#27AAE1" stop-opacity="0.53"/>
<stop offset="0.17" stop-color="#27AAE1" stop-opacity="0.39"/>
<stop offset="0.23" stop-color="#27AAE1" stop-opacity="0.26"/>
<stop offset="0.3" stop-color="#27AAE1" stop-opacity="0.17"/>
<stop offset="0.38" stop-color="#27AAE1" stop-opacity="0.09"/>
<stop offset="0.48" stop-color="#27AAE1" stop-opacity="0.04"/>
<stop offset="0.62" stop-color="#27AAE1" stop-opacity="0.01"/>
<stop offset="1" stop-color="#27AAE1" stop-opacity="0"/>
</radialGradient>
<radialGradient id="paint7_radial_202_18" cx="0" cy="0" r="1" gradientUnits="userSpaceOnUse" gradientTransform="translate(122.22 455.079) scale(46.1305 46.1218)">
<stop stop-color="#27AAE1"/>
<stop offset="0.03" stop-color="#27AAE1" stop-opacity="0.88"/>
<stop offset="0.07" stop-color="#27AAE1" stop-opacity="0.7"/>
<stop offset="0.12" stop-color="#27AAE1" stop-opacity="0.53"/>
<stop offset="0.17" stop-color="#27AAE1" stop-opacity="0.39"/>
<stop offset="0.23" stop-color="#27AAE1" stop-opacity="0.26"/>
<stop offset="0.3" stop-color="#27AAE1" stop-opacity="0.17"/>
<stop offset="0.38" stop-color="#27AAE1" stop-opacity="0.09"/>
<stop offset="0.48" stop-color="#27AAE1" stop-opacity="0.04"/>
<stop offset="0.62" stop-color="#27AAE1" stop-opacity="0.01"/>
<stop offset="1" stop-color="#27AAE1" stop-opacity="0"/>
</radialGradient>
<radialGradient id="paint8_radial_202_18" cx="0" cy="0" r="1" gradientUnits="userSpaceOnUse" gradientTransform="translate(42.3727 433.422) scale(29.9701 29.9645)">
<stop stop-color="#27AAE1"/>
<stop offset="0.03" stop-color="#27AAE1" stop-opacity="0.88"/>
<stop offset="0.07" stop-color="#27AAE1" stop-opacity="0.7"/>
<stop offset="0.12" stop-color="#27AAE1" stop-opacity="0.53"/>
<stop offset="0.17" stop-color="#27AAE1" stop-opacity="0.39"/>
<stop offset="0.23" stop-color="#27AAE1" stop-opacity="0.26"/>
<stop offset="0.3" stop-color="#27AAE1" stop-opacity="0.17"/>
<stop offset="0.38" stop-color="#27AAE1" stop-opacity="0.09"/>
<stop offset="0.48" stop-color="#27AAE1" stop-opacity="0.04"/>
<stop offset="0.62" stop-color="#27AAE1" stop-opacity="0.01"/>
<stop offset="1" stop-color="#27AAE1" stop-opacity="0"/>
</radialGradient>
<radialGradient id="paint9_radial_202_18" cx="0" cy="0" r="1" gradientUnits="userSpaceOnUse" gradientTransform="translate(122.987 266.281) scale(29.9701 29.9645)">
<stop stop-color="#27AAE1"/>
<stop offset="0.03" stop-color="#27AAE1" stop-opacity="0.88"/>
<stop offset="0.07" stop-color="#27AAE1" stop-opacity="0.7"/>
<stop offset="0.12" stop-color="#27AAE1" stop-opacity="0.53"/>
<stop offset="0.17" stop-color="#27AAE1" stop-opacity="0.39"/>
<stop offset="0.23" stop-color="#27AAE1" stop-opacity="0.26"/>
<stop offset="0.3" stop-color="#27AAE1" stop-opacity="0.17"/>
<stop offset="0.38" stop-color="#27AAE1" stop-opacity="0.09"/>
<stop offset="0.48" stop-color="#27AAE1" stop-opacity="0.04"/>
<stop offset="0.62" stop-color="#27AAE1" stop-opacity="0.01"/>
<stop offset="1" stop-color="#27AAE1" stop-opacity="0"/>
</radialGradient>
<radialGradient id="paint10_radial_202_18" cx="0" cy="0" r="1" gradientUnits="userSpaceOnUse" gradientTransform="translate(526.996 42.3644) scale(29.9701 29.9645)">
<stop stop-color="#27AAE1"/>
<stop offset="0.03" stop-color="#27AAE1" stop-opacity="0.88"/>
<stop offset="0.07" stop-color="#27AAE1" stop-opacity="0.7"/>
<stop offset="0.12" stop-color="#27AAE1" stop-opacity="0.53"/>
<stop offset="0.17" stop-color="#27AAE1" stop-opacity="0.39"/>
<stop offset="0.23" stop-color="#27AAE1" stop-opacity="0.26"/>
<stop offset="0.3" stop-color="#27AAE1" stop-opacity="0.17"/>
<stop offset="0.38" stop-color="#27AAE1" stop-opacity="0.09"/>
<stop offset="0.48" stop-color="#27AAE1" stop-opacity="0.04"/>
<stop offset="0.62" stop-color="#27AAE1" stop-opacity="0.01"/>
<stop offset="1" stop-color="#27AAE1" stop-opacity="0"/>
</radialGradient>
<radialGradient id="paint11_radial_202_18" cx="0" cy="0" r="1" gradientUnits="userSpaceOnUse" gradientTransform="translate(707.079 231.333) scale(29.9701 29.9645)">
<stop stop-color="#27AAE1"/>
<stop offset="0.03" stop-color="#27AAE1" stop-opacity="0.88"/>
<stop offset="0.07" stop-color="#27AAE1" stop-opacity="0.7"/>
<stop offset="0.12" stop-color="#27AAE1" stop-opacity="0.53"/>
<stop offset="0.17" stop-color="#27AAE1" stop-opacity="0.39"/>
<stop offset="0.23" stop-color="#27AAE1" stop-opacity="0.26"/>
<stop offset="0.3" stop-color="#27AAE1" stop-opacity="0.17"/>
<stop offset="0.38" stop-color="#27AAE1" stop-opacity="0.09"/>
<stop offset="0.48" stop-color="#27AAE1" stop-opacity="0.04"/>
<stop offset="0.62" stop-color="#27AAE1" stop-opacity="0.01"/>
<stop offset="1" stop-color="#27AAE1" stop-opacity="0"/>
</radialGradient>
</defs>
</svg>
