<svg width="1266" height="855" viewBox="0 0 1266 855" fill="none" xmlns="http://www.w3.org/2000/svg">
<g style="mix-blend-mode:soft-light" opacity="0.33">
<path d="M4.7238 2.37561C4.7238 3.00191 4.47496 3.60255 4.03201 4.04541C3.58907 4.48827 2.98832 4.73707 2.3619 4.73707C1.73549 4.73707 1.13473 4.48827 0.691786 4.04541C0.248844 3.60255 0 3.00191 0 2.37561C0 1.74932 0.248844 1.14867 0.691786 0.705815C1.13473 0.262957 1.73549 0.0141602 2.3619 0.0141602C2.98832 0.0141602 3.58907 0.262957 4.03201 0.705815C4.47496 1.14867 4.7238 1.74932 4.7238 2.37561V2.37561Z" fill="white"/>
<path d="M101.686 2.37569C101.686 2.84967 101.543 3.31263 101.277 3.7049C101.011 4.09717 100.633 4.40075 100.193 4.57654C99.7528 4.75232 99.2699 4.79224 98.8068 4.69115C98.3436 4.59007 97.9213 4.3526 97.5944 4.00937C97.2674 3.66614 97.0508 3.23288 96.9724 2.76542C96.894 2.29796 96.9574 1.81774 97.1545 1.38665C97.3515 0.955557 97.6732 0.593356 98.0781 0.346732C98.4829 0.100108 98.9524 -0.0196338 99.4259 0.0029366C99.7325 0.00255321 100.036 0.0645248 100.318 0.185088C100.6 0.305652 100.854 0.482283 101.065 0.704238C101.277 0.926192 101.441 1.18883 101.548 1.47617C101.654 1.76352 101.701 2.06956 101.686 2.37569Z" fill="white"/>
<path d="M198.626 2.37568C198.604 2.81713 198.452 3.24241 198.191 3.59887C197.93 3.95533 197.569 4.22732 197.155 4.38116C196.741 4.53501 196.29 4.56395 195.859 4.46441C195.429 4.36487 195.037 4.14122 194.732 3.82115C194.427 3.50108 194.222 3.09863 194.144 2.66364C194.066 2.22865 194.116 1.7802 194.29 1.37382C194.464 0.967448 194.754 0.620983 195.122 0.377316C195.491 0.133649 195.923 0.00348433 196.366 0.00293146C196.672 0.00254807 196.976 0.0645196 197.257 0.185083C197.539 0.305646 197.794 0.482278 198.005 0.704233C198.216 0.926187 198.381 1.18883 198.487 1.47617C198.594 1.76351 198.641 2.06956 198.626 2.37568Z" fill="white"/>
<path d="M295.588 2.37573C295.588 2.84501 295.449 3.30376 295.188 3.69396C294.927 4.08416 294.557 4.38828 294.123 4.56786C293.689 4.74745 293.212 4.79444 292.752 4.70289C292.291 4.61134 291.869 4.38535 291.537 4.05352C291.205 3.72168 290.979 3.2989 290.887 2.83863C290.796 2.37836 290.843 1.90128 291.022 1.46772C291.202 1.03415 291.506 0.663578 291.896 0.402857C292.287 0.142135 292.745 0.00297766 293.215 0.00297766C293.531 -0.0132537 293.847 0.037006 294.142 0.150506C294.437 0.264005 294.705 0.438214 294.929 0.661867C295.153 0.88552 295.327 1.15363 295.44 1.44886C295.554 1.74409 295.604 2.05985 295.588 2.37573V2.37573Z" fill="white"/>
<path d="M392.527 2.37573C392.527 2.84501 392.388 3.30376 392.127 3.69396C391.867 4.08416 391.496 4.38828 391.062 4.56786C390.629 4.74745 390.152 4.79444 389.691 4.70289C389.231 4.61134 388.808 4.38535 388.476 4.05352C388.144 3.72168 387.918 3.2989 387.827 2.83863C387.735 2.37836 387.782 1.90128 387.962 1.46772C388.141 1.03415 388.445 0.663578 388.836 0.402857C389.226 0.142135 389.685 0.00297766 390.154 0.00297766C390.47 -0.0132537 390.786 0.037006 391.081 0.150506C391.377 0.264005 391.645 0.438214 391.868 0.661867C392.092 0.88552 392.266 1.15363 392.38 1.44886C392.493 1.74409 392.544 2.05985 392.527 2.37573V2.37573Z" fill="white"/>
<path d="M489.467 2.37568C489.445 2.81713 489.294 3.24241 489.032 3.59887C488.771 3.95533 488.411 4.22732 487.996 4.38116C487.582 4.53501 487.131 4.56395 486.701 4.46441C486.27 4.36487 485.878 4.14122 485.573 3.82115C485.268 3.50108 485.064 3.09863 484.985 2.66364C484.907 2.22865 484.958 1.7802 485.132 1.37382C485.306 0.967448 485.595 0.620983 485.964 0.377316C486.333 0.133649 486.765 0.00348433 487.207 0.00293146C487.513 0.00254807 487.817 0.0645196 488.099 0.185083C488.381 0.305646 488.635 0.482278 488.846 0.704233C489.058 0.926187 489.222 1.18883 489.329 1.47617C489.435 1.76351 489.482 2.06956 489.467 2.37568V2.37568Z" fill="white"/>
<path d="M586.429 2.37573C586.429 2.84501 586.29 3.30376 586.029 3.69396C585.769 4.08416 585.398 4.38828 584.964 4.56786C584.531 4.74745 584.053 4.79444 583.593 4.70289C583.133 4.61134 582.71 4.38535 582.378 4.05352C582.046 3.72168 581.82 3.2989 581.728 2.83863C581.637 2.37836 581.684 1.90128 581.864 1.46772C582.043 1.03415 582.347 0.663578 582.738 0.402857C583.128 0.142135 583.587 0.00297766 584.056 0.00297766C584.372 -0.0132537 584.688 0.037006 584.983 0.150506C585.278 0.264005 585.547 0.438214 585.77 0.661867C585.994 0.88552 586.168 1.15363 586.282 1.44886C586.395 1.74409 586.446 2.05985 586.429 2.37573V2.37573Z" fill="white"/>
<path d="M683.369 2.37573C683.347 2.81221 683.198 3.23283 682.941 3.58662C682.685 3.94041 682.331 4.21218 681.923 4.36902C681.515 4.52586 681.07 4.56103 680.642 4.47027C680.215 4.3795 679.823 4.1667 679.514 3.85765C679.204 3.5486 678.992 3.15657 678.901 2.72903C678.81 2.3015 678.845 1.85681 679.002 1.44886C679.159 1.04091 679.431 0.687187 679.785 0.430558C680.138 0.17393 680.559 0.0254067 680.996 0.00297766C681.312 -0.0132537 681.628 0.037006 681.923 0.150506C682.218 0.264005 682.486 0.438214 682.71 0.661867C682.934 0.88552 683.108 1.15363 683.221 1.44886C683.335 1.74409 683.385 2.05985 683.369 2.37573V2.37573Z" fill="white"/>
<path d="M780.309 2.37568C780.286 2.81713 780.135 3.24241 779.874 3.59887C779.613 3.95533 779.252 4.22732 778.838 4.38116C778.423 4.53501 777.973 4.56395 777.542 4.46441C777.112 4.36487 776.719 4.14122 776.414 3.82115C776.11 3.50108 775.905 3.09863 775.827 2.66364C775.748 2.22865 775.799 1.7802 775.973 1.37382C776.147 0.967448 776.436 0.620983 776.805 0.377316C777.174 0.133649 777.606 0.00348433 778.048 0.00293146C778.355 0.00254807 778.658 0.0645196 778.94 0.185083C779.222 0.305646 779.476 0.482278 779.688 0.704233C779.899 0.926187 780.063 1.18883 780.17 1.47617C780.277 1.76351 780.324 2.06956 780.309 2.37568Z" fill="white"/>
<path d="M877.339 2.37573C877.339 2.84501 877.199 3.30376 876.939 3.69396C876.678 4.08416 876.307 4.38828 875.874 4.56786C875.44 4.74745 874.963 4.79444 874.502 4.70289C874.042 4.61134 873.619 4.38535 873.287 4.05352C872.955 3.72168 872.729 3.2989 872.638 2.83863C872.546 2.37836 872.593 1.90128 872.773 1.46772C872.952 1.03415 873.257 0.663578 873.647 0.402857C874.037 0.142135 874.496 0.00297766 874.965 0.00297766C875.281 -0.0132537 875.597 0.037006 875.892 0.150506C876.188 0.264005 876.456 0.438214 876.68 0.661867C876.903 0.88552 877.078 1.15363 877.191 1.44886C877.305 1.74409 877.355 2.05985 877.339 2.37573V2.37573Z" fill="white"/>
<path d="M974.21 2.37573C974.188 2.81221 974.039 3.23283 973.783 3.58662C973.526 3.94041 973.172 4.21218 972.764 4.36902C972.356 4.52586 971.911 4.56103 971.484 4.47027C971.056 4.3795 970.664 4.1667 970.355 3.85765C970.046 3.5486 969.833 3.15657 969.742 2.72903C969.651 2.3015 969.687 1.85681 969.844 1.44886C970 1.04091 970.272 0.687187 970.626 0.430558C970.98 0.17393 971.401 0.0254067 971.837 0.00297766C972.153 -0.0132537 972.469 0.037006 972.764 0.150506C973.06 0.264005 973.328 0.438214 973.551 0.661867C973.775 0.88552 973.949 1.15363 974.063 1.44886C974.176 1.74409 974.227 2.05985 974.21 2.37573V2.37573Z" fill="white"/>
<path d="M1071.15 2.37561C1071.15 3.00191 1070.9 3.60255 1070.46 4.04541C1070.02 4.48827 1069.41 4.73707 1068.79 4.73707C1068.16 4.73707 1067.56 4.48827 1067.12 4.04541C1066.68 3.60255 1066.43 3.00191 1066.43 2.37561C1066.43 1.74932 1066.68 1.14867 1067.12 0.705815C1067.56 0.262957 1068.16 0.0141602 1068.79 0.0141602C1069.41 0.0141602 1070.02 0.262957 1070.46 0.705815C1070.9 1.14867 1071.15 1.74932 1071.15 2.37561Z" fill="white"/>
<path d="M1168.11 2.37569C1168.11 2.84967 1167.97 3.31263 1167.7 3.7049C1167.44 4.09717 1167.06 4.40075 1166.62 4.57654C1166.18 4.75232 1165.7 4.79224 1165.23 4.69115C1164.77 4.59007 1164.35 4.3526 1164.02 4.00937C1163.69 3.66614 1163.48 3.23288 1163.4 2.76542C1163.32 2.29796 1163.38 1.81774 1163.58 1.38665C1163.78 0.955557 1164.1 0.593356 1164.5 0.346732C1164.91 0.100108 1165.38 -0.0196338 1165.85 0.0029366C1166.16 0.00255321 1166.46 0.0645248 1166.74 0.185088C1167.03 0.305652 1167.28 0.482283 1167.49 0.704238C1167.7 0.926192 1167.87 1.18883 1167.97 1.47617C1168.08 1.76352 1168.13 2.06956 1168.11 2.37569V2.37569Z" fill="white"/>
<path d="M1265.05 2.37568C1265.03 2.81713 1264.88 3.24241 1264.62 3.59887C1264.36 3.95533 1264 4.22732 1263.58 4.38116C1263.17 4.53501 1262.72 4.56395 1262.29 4.46441C1261.85 4.36487 1261.46 4.14122 1261.16 3.82115C1260.85 3.50108 1260.65 3.09863 1260.57 2.66364C1260.49 2.22865 1260.54 1.7802 1260.72 1.37382C1260.89 0.967448 1261.18 0.620983 1261.55 0.377316C1261.92 0.133649 1262.35 0.00348433 1262.79 0.00293146C1263.1 0.00254807 1263.4 0.0645196 1263.68 0.185083C1263.97 0.305646 1264.22 0.482278 1264.43 0.704233C1264.64 0.926187 1264.81 1.18883 1264.91 1.47617C1265.02 1.76351 1265.07 2.06956 1265.05 2.37568V2.37568Z" fill="white"/>
<path d="M2.3732 99.1388C3.68388 99.1388 4.7464 98.0765 4.7464 96.7661C4.7464 95.4556 3.68388 94.3933 2.3732 94.3933C1.06252 94.3933 0 95.4556 0 96.7661C0 98.0765 1.06252 99.1388 2.3732 99.1388Z" fill="white"/>
<path d="M101.686 96.766C101.708 97.2442 101.585 97.7179 101.333 98.125C101.081 98.532 100.712 98.8534 100.274 99.0468C99.8363 99.2403 99.3501 99.2967 98.8795 99.2088C98.4088 99.1209 97.9758 98.8927 97.6372 98.5542C97.2987 98.2157 97.0704 97.7828 96.9825 97.3122C96.8946 96.8416 96.9511 96.3555 97.1445 95.9176C97.338 95.4797 97.6594 95.1106 98.0665 94.8587C98.4737 94.6068 98.9475 94.484 99.4258 94.5062C100.025 94.5062 100.6 94.7443 101.024 95.1681C101.448 95.5919 101.686 96.1667 101.686 96.766Z" fill="white"/>
<path d="M196.252 99.1388C197.563 99.1388 198.626 98.0765 198.626 96.7661C198.626 95.4556 197.563 94.3933 196.252 94.3933C194.942 94.3933 193.879 95.4556 193.879 96.7661C193.879 98.0765 194.942 99.1388 196.252 99.1388Z" fill="white"/>
<path d="M293.215 99.1388C294.525 99.1388 295.588 98.0765 295.588 96.7661C295.588 95.4556 294.525 94.3933 293.215 94.3933C291.904 94.3933 290.841 95.4556 290.841 96.7661C290.841 98.0765 291.904 99.1388 293.215 99.1388Z" fill="white"/>
<path d="M392.527 96.766C392.55 97.2395 392.43 97.7088 392.184 98.1136C391.937 98.5184 391.575 98.84 391.143 99.037C390.712 99.234 390.232 99.2975 389.764 99.2191C389.297 99.1407 388.863 98.9241 388.52 98.5972C388.177 98.2703 387.939 97.8481 387.838 97.385C387.737 96.922 387.777 96.4392 387.953 95.999C388.129 95.5588 388.432 95.1814 388.825 94.9153C389.217 94.6493 389.68 94.5068 390.154 94.5062C390.46 94.4909 390.766 94.538 391.054 94.6447C391.341 94.7514 391.604 94.9154 391.826 95.1268C392.048 95.3382 392.225 95.5925 392.345 95.8743C392.466 96.1561 392.528 96.4595 392.527 96.766Z" fill="white"/>
<path d="M487.116 99.1388C488.427 99.1388 489.49 98.0765 489.49 96.7661C489.49 95.4556 488.427 94.3933 487.116 94.3933C485.806 94.3933 484.743 95.4556 484.743 96.7661C484.743 98.0765 485.806 99.1388 487.116 99.1388Z" fill="white"/>
<path d="M586.429 96.766C586.452 97.2395 586.332 97.7088 586.085 98.1136C585.839 98.5184 585.476 98.84 585.045 99.037C584.614 99.234 584.134 99.2975 583.666 99.2191C583.199 99.1407 582.765 98.9241 582.422 98.5972C582.079 98.2703 581.841 97.8481 581.74 97.385C581.639 96.922 581.679 96.4392 581.855 95.999C582.031 95.5588 582.334 95.1814 582.727 94.9153C583.119 94.6493 583.582 94.5068 584.056 94.5062C584.362 94.4909 584.668 94.538 584.956 94.6447C585.243 94.7514 585.506 94.9154 585.728 95.1268C585.95 95.3382 586.126 95.5925 586.247 95.8743C586.368 96.1561 586.43 96.4595 586.429 96.766V96.766Z" fill="white"/>
<path d="M683.369 96.766C683.368 97.208 683.238 97.6402 682.995 98.0089C682.751 98.3777 682.404 98.6669 681.998 98.8408C681.591 99.0146 681.143 99.0655 680.708 98.9871C680.273 98.9087 679.87 98.7044 679.55 98.3996C679.23 98.0947 679.006 97.7027 678.907 97.2721C678.807 96.8414 678.836 96.391 678.99 95.9767C679.144 95.5623 679.416 95.2021 679.772 94.9408C680.129 94.6794 680.554 94.5283 680.996 94.5062C681.302 94.4909 681.608 94.538 681.895 94.6447C682.183 94.7514 682.446 94.9154 682.668 95.1268C682.89 95.3382 683.066 95.5925 683.187 95.8743C683.307 96.1561 683.369 96.4595 683.369 96.766V96.766Z" fill="white"/>
<path d="M777.958 99.1388C779.269 99.1388 780.331 98.0765 780.331 96.7661C780.331 95.4556 779.269 94.3933 777.958 94.3933C776.647 94.3933 775.585 95.4556 775.585 96.7661C775.585 98.0765 776.647 99.1388 777.958 99.1388Z" fill="white"/>
<path d="M874.898 99.1388C876.208 99.1388 877.271 98.0765 877.271 96.7661C877.271 95.4556 876.208 94.3933 874.898 94.3933C873.587 94.3933 872.524 95.4556 872.524 96.7661C872.524 98.0765 873.587 99.1388 874.898 99.1388Z" fill="white"/>
<path d="M971.837 99.1388C973.148 99.1388 974.21 98.0765 974.21 96.7661C974.21 95.4556 973.148 94.3933 971.837 94.3933C970.526 94.3933 969.464 95.4556 969.464 96.7661C969.464 98.0765 970.526 99.1388 971.837 99.1388Z" fill="white"/>
<path d="M1068.8 99.1388C1070.11 99.1388 1071.17 98.0765 1071.17 96.7661C1071.17 95.4556 1070.11 94.3933 1068.8 94.3933C1067.49 94.3933 1066.43 95.4556 1066.43 96.7661C1066.43 98.0765 1067.49 99.1388 1068.8 99.1388Z" fill="white"/>
<path d="M1165.74 99.1388C1167.05 99.1388 1168.11 98.0765 1168.11 96.7661C1168.11 95.4556 1167.05 94.3933 1165.74 94.3933C1164.43 94.3933 1163.37 95.4556 1163.37 96.7661C1163.37 98.0765 1164.43 99.1388 1165.74 99.1388Z" fill="white"/>
<path d="M1262.68 99.1388C1263.99 99.1388 1265.05 98.0765 1265.05 96.7661C1265.05 95.4556 1263.99 94.3933 1262.68 94.3933C1261.37 94.3933 1260.31 95.4556 1260.31 96.7661C1260.31 98.0765 1261.37 99.1388 1262.68 99.1388Z" fill="white"/>
<path d="M4.72375 191.156C4.72375 191.603 4.5912 192.04 4.34284 192.412C4.09449 192.783 3.74149 193.073 3.3285 193.244C2.9155 193.415 2.46105 193.46 2.02262 193.373C1.58418 193.285 1.18146 193.07 0.865363 192.754C0.54927 192.438 0.334009 192.035 0.246799 191.597C0.159589 191.159 0.204348 190.704 0.375417 190.291C0.546486 189.879 0.836179 189.526 1.20787 189.277C1.57955 189.029 2.01654 188.896 2.46356 188.896C3.063 188.896 3.63789 189.135 4.06176 189.558C4.48563 189.982 4.72375 190.557 4.72375 191.156Z" fill="white"/>
<path d="M101.686 191.156C101.708 191.635 101.585 192.108 101.333 192.515C101.081 192.922 100.712 193.244 100.274 193.437C99.8363 193.631 99.3501 193.687 98.8795 193.599C98.4088 193.511 97.9758 193.283 97.6372 192.945C97.2987 192.606 97.0704 192.173 96.9825 191.703C96.8946 191.232 96.9511 190.746 97.1445 190.308C97.338 189.87 97.6594 189.501 98.0665 189.249C98.4737 188.997 98.9475 188.874 99.4258 188.897C100.025 188.897 100.6 189.135 101.024 189.558C101.448 189.982 101.686 190.557 101.686 191.156Z" fill="white"/>
<path d="M198.626 191.156C198.626 191.603 198.493 192.04 198.245 192.412C197.996 192.783 197.643 193.073 197.23 193.244C196.817 193.415 196.363 193.46 195.924 193.373C195.486 193.285 195.083 193.07 194.767 192.754C194.451 192.438 194.236 192.035 194.149 191.597C194.061 191.159 194.106 190.704 194.277 190.291C194.448 189.879 194.738 189.526 195.11 189.277C195.481 189.029 195.918 188.896 196.365 188.896C196.965 188.896 197.54 189.135 197.964 189.558C198.387 189.982 198.626 190.557 198.626 191.156Z" fill="white"/>
<path d="M295.588 191.156C295.611 191.63 295.491 192.099 295.244 192.504C294.997 192.909 294.635 193.23 294.204 193.427C293.773 193.624 293.292 193.688 292.825 193.609C292.357 193.531 291.924 193.314 291.581 192.988C291.237 192.661 291 192.238 290.899 191.775C290.798 191.312 290.838 190.83 291.013 190.389C291.189 189.949 291.493 189.572 291.885 189.306C292.278 189.04 292.741 188.897 293.215 188.897C293.521 188.881 293.827 188.928 294.114 189.035C294.402 189.142 294.664 189.306 294.886 189.517C295.108 189.729 295.285 189.983 295.406 190.265C295.526 190.547 295.588 190.85 295.588 191.156Z" fill="white"/>
<path d="M392.527 191.156C392.55 191.63 392.43 192.099 392.184 192.504C391.937 192.909 391.575 193.23 391.143 193.427C390.712 193.624 390.232 193.688 389.764 193.609C389.297 193.531 388.863 193.314 388.52 192.988C388.177 192.661 387.939 192.238 387.838 191.775C387.737 191.312 387.777 190.83 387.953 190.389C388.129 189.949 388.432 189.572 388.825 189.306C389.217 189.04 389.68 188.897 390.154 188.897C390.46 188.881 390.766 188.928 391.054 189.035C391.341 189.142 391.604 189.306 391.826 189.517C392.048 189.729 392.225 189.983 392.345 190.265C392.466 190.547 392.528 190.85 392.527 191.156Z" fill="white"/>
<path d="M489.467 191.156C489.467 191.603 489.335 192.04 489.086 192.412C488.838 192.783 488.485 193.073 488.072 193.244C487.659 193.415 487.204 193.46 486.766 193.373C486.328 193.285 485.925 193.07 485.609 192.754C485.293 192.438 485.077 192.035 484.99 191.597C484.903 191.159 484.948 190.704 485.119 190.291C485.29 189.879 485.58 189.526 485.951 189.277C486.323 189.029 486.76 188.896 487.207 188.896C487.806 188.896 488.381 189.135 488.805 189.558C489.229 189.982 489.467 190.557 489.467 191.156Z" fill="white"/>
<path d="M586.429 191.156C586.452 191.63 586.332 192.099 586.085 192.504C585.839 192.909 585.476 193.23 585.045 193.427C584.614 193.624 584.134 193.688 583.666 193.609C583.199 193.531 582.765 193.314 582.422 192.988C582.079 192.661 581.841 192.238 581.74 191.775C581.639 191.312 581.679 190.83 581.855 190.389C582.031 189.949 582.334 189.572 582.727 189.306C583.119 189.04 583.582 188.897 584.056 188.897C584.362 188.881 584.668 188.928 584.956 189.035C585.243 189.142 585.506 189.306 585.728 189.517C585.95 189.729 586.126 189.983 586.247 190.265C586.368 190.547 586.43 190.85 586.429 191.156V191.156Z" fill="white"/>
<path d="M683.369 191.156C683.369 191.783 683.12 192.383 682.677 192.826C682.234 193.269 681.633 193.518 681.007 193.518C680.381 193.518 679.78 193.269 679.337 192.826C678.894 192.383 678.645 191.783 678.645 191.156C678.645 190.53 678.894 189.929 679.337 189.487C679.78 189.044 680.381 188.795 681.007 188.795C681.633 188.795 682.234 189.044 682.677 189.487C683.12 189.929 683.369 190.53 683.369 191.156V191.156Z" fill="white"/>
<path d="M780.309 191.156C780.309 191.603 780.176 192.04 779.928 192.412C779.679 192.783 779.326 193.073 778.913 193.244C778.5 193.415 778.046 193.46 777.607 193.373C777.169 193.285 776.766 193.07 776.45 192.754C776.134 192.438 775.919 192.035 775.832 191.597C775.744 191.159 775.789 190.704 775.96 190.291C776.131 189.879 776.421 189.526 776.793 189.277C777.164 189.029 777.601 188.896 778.048 188.896C778.648 188.896 779.223 189.135 779.646 189.558C780.07 189.982 780.309 190.557 780.309 191.156Z" fill="white"/>
<path d="M877.339 191.156C877.361 191.63 877.241 192.099 876.995 192.504C876.748 192.909 876.386 193.23 875.955 193.427C875.523 193.624 875.043 193.688 874.576 193.609C874.108 193.531 873.675 193.314 873.331 192.988C872.988 192.661 872.751 192.238 872.649 191.775C872.548 191.312 872.588 190.83 872.764 190.389C872.94 189.949 873.244 189.572 873.636 189.306C874.028 189.04 874.491 188.897 874.965 188.897C875.272 188.881 875.578 188.928 875.865 189.035C876.152 189.142 876.415 189.306 876.637 189.517C876.859 189.729 877.036 189.983 877.156 190.265C877.277 190.547 877.339 190.85 877.339 191.156Z" fill="white"/>
<path d="M974.21 191.156C974.21 191.598 974.08 192.031 973.836 192.399C973.592 192.768 973.246 193.057 972.839 193.231C972.433 193.405 971.984 193.456 971.549 193.377C971.114 193.299 970.712 193.095 970.391 192.79C970.071 192.485 969.848 192.093 969.748 191.662C969.648 191.232 969.677 190.781 969.831 190.367C969.985 189.953 970.257 189.593 970.614 189.331C970.97 189.07 971.396 188.919 971.837 188.897C972.143 188.881 972.449 188.928 972.737 189.035C973.024 189.142 973.287 189.306 973.509 189.517C973.731 189.729 973.908 189.983 974.028 190.265C974.149 190.547 974.211 190.85 974.21 191.156Z" fill="white"/>
<path d="M1071.15 191.156C1071.15 191.603 1071.02 192.04 1070.77 192.412C1070.52 192.783 1070.17 193.073 1069.75 193.244C1069.34 193.415 1068.89 193.46 1068.45 193.373C1068.01 193.285 1067.61 193.07 1067.29 192.754C1066.98 192.438 1066.76 192.035 1066.67 191.597C1066.59 191.159 1066.63 190.704 1066.8 190.291C1066.97 189.879 1067.26 189.526 1067.63 189.277C1068.01 189.029 1068.44 188.896 1068.89 188.896C1069.49 188.896 1070.06 189.135 1070.49 189.558C1070.91 189.982 1071.15 190.557 1071.15 191.156Z" fill="white"/>
<path d="M1168.11 191.156C1168.13 191.635 1168.01 192.108 1167.76 192.515C1167.51 192.922 1167.14 193.244 1166.7 193.437C1166.26 193.631 1165.78 193.687 1165.31 193.599C1164.83 193.511 1164.4 193.283 1164.06 192.945C1163.72 192.606 1163.5 192.173 1163.41 191.703C1163.32 191.232 1163.38 190.746 1163.57 190.308C1163.76 189.87 1164.09 189.501 1164.49 189.249C1164.9 188.997 1165.37 188.874 1165.85 188.897C1166.45 188.897 1167.03 189.135 1167.45 189.558C1167.87 189.982 1168.11 190.557 1168.11 191.156Z" fill="white"/>
<path d="M1265.05 191.156C1265.05 191.603 1264.92 192.04 1264.67 192.412C1264.42 192.783 1264.07 193.073 1263.66 193.244C1263.24 193.415 1262.79 193.46 1262.35 193.373C1261.91 193.285 1261.51 193.07 1261.19 192.754C1260.88 192.438 1260.66 192.035 1260.57 191.597C1260.49 191.159 1260.53 190.704 1260.7 190.291C1260.87 189.879 1261.16 189.526 1261.54 189.277C1261.91 189.029 1262.34 188.896 1262.79 188.896C1263.39 188.896 1263.97 189.135 1264.39 189.558C1264.81 189.982 1265.05 190.557 1265.05 191.156Z" fill="white"/>
<path d="M2.3732 287.942C3.68388 287.942 4.7464 286.88 4.7464 285.569C4.7464 284.259 3.68388 283.197 2.3732 283.197C1.06252 283.197 0 284.259 0 285.569C0 286.88 1.06252 287.942 2.3732 287.942Z" fill="white"/>
<path d="M101.686 285.569C101.708 286.047 101.585 286.521 101.333 286.928C101.081 287.335 100.712 287.657 100.274 287.85C99.8363 288.043 99.3501 288.1 98.8795 288.012C98.4088 287.924 97.9758 287.696 97.6372 287.357C97.2987 287.019 97.0704 286.586 96.9825 286.115C96.8946 285.645 96.9511 285.159 97.1445 284.721C97.338 284.283 97.6594 283.914 98.0665 283.662C98.4737 283.41 98.9475 283.287 99.4258 283.309C100.025 283.309 100.6 283.548 101.024 283.971C101.448 284.395 101.686 284.97 101.686 285.569Z" fill="white"/>
<path d="M196.252 287.942C197.563 287.942 198.626 286.88 198.626 285.569C198.626 284.259 197.563 283.197 196.252 283.197C194.942 283.197 193.879 284.259 193.879 285.569C193.879 286.88 194.942 287.942 196.252 287.942Z" fill="white"/>
<path d="M293.215 287.942C294.525 287.942 295.588 286.88 295.588 285.569C295.588 284.259 294.525 283.197 293.215 283.197C291.904 283.197 290.841 284.259 290.841 285.569C290.841 286.88 291.904 287.942 293.215 287.942Z" fill="white"/>
<path d="M392.527 285.569C392.55 286.043 392.43 286.512 392.184 286.917C391.937 287.322 391.575 287.643 391.143 287.84C390.712 288.037 390.232 288.101 389.764 288.022C389.297 287.944 388.863 287.727 388.52 287.4C388.177 287.074 387.939 286.651 387.838 286.188C387.737 285.725 387.777 285.242 387.953 284.802C388.129 284.362 388.432 283.985 388.825 283.719C389.217 283.452 389.68 283.31 390.154 283.309C390.46 283.294 390.766 283.341 391.054 283.448C391.341 283.555 391.604 283.719 391.826 283.93C392.048 284.141 392.225 284.396 392.345 284.678C392.466 284.959 392.528 285.263 392.527 285.569Z" fill="white"/>
<path d="M487.116 287.942C488.427 287.942 489.49 286.88 489.49 285.569C489.49 284.259 488.427 283.197 487.116 283.197C485.806 283.197 484.743 284.259 484.743 285.569C484.743 286.88 485.806 287.942 487.116 287.942Z" fill="white"/>
<path d="M586.429 285.569C586.452 286.043 586.332 286.512 586.085 286.917C585.839 287.322 585.476 287.643 585.045 287.84C584.614 288.037 584.134 288.101 583.666 288.022C583.199 287.944 582.765 287.727 582.422 287.4C582.079 287.074 581.841 286.651 581.74 286.188C581.639 285.725 581.679 285.242 581.855 284.802C582.031 284.362 582.334 283.985 582.727 283.719C583.119 283.452 583.582 283.31 584.056 283.309C584.362 283.294 584.668 283.341 584.956 283.448C585.243 283.555 585.506 283.719 585.728 283.93C585.95 284.141 586.126 284.396 586.247 284.678C586.368 284.959 586.43 285.263 586.429 285.569V285.569Z" fill="white"/>
<path d="M683.369 285.569C683.368 286.011 683.238 286.443 682.995 286.812C682.751 287.181 682.404 287.47 681.998 287.644C681.591 287.818 681.143 287.869 680.708 287.79C680.273 287.712 679.87 287.508 679.55 287.203C679.23 286.898 679.006 286.506 678.907 286.075C678.807 285.645 678.836 285.194 678.99 284.78C679.144 284.366 679.416 284.005 679.772 283.744C680.129 283.483 680.554 283.332 680.996 283.309C681.302 283.294 681.608 283.341 681.895 283.448C682.183 283.555 682.446 283.719 682.668 283.93C682.89 284.141 683.066 284.396 683.187 284.678C683.307 284.959 683.369 285.263 683.369 285.569V285.569Z" fill="white"/>
<path d="M777.958 287.942C779.269 287.942 780.331 286.88 780.331 285.569C780.331 284.259 779.269 283.197 777.958 283.197C776.647 283.197 775.585 284.259 775.585 285.569C775.585 286.88 776.647 287.942 777.958 287.942Z" fill="white"/>
<path d="M874.898 287.942C876.208 287.942 877.271 286.88 877.271 285.569C877.271 284.259 876.208 283.197 874.898 283.197C873.587 283.197 872.524 284.259 872.524 285.569C872.524 286.88 873.587 287.942 874.898 287.942Z" fill="white"/>
<path d="M971.837 287.942C973.148 287.942 974.21 286.88 974.21 285.569C974.21 284.259 973.148 283.197 971.837 283.197C970.526 283.197 969.464 284.259 969.464 285.569C969.464 286.88 970.526 287.942 971.837 287.942Z" fill="white"/>
<path d="M1068.8 287.942C1070.11 287.942 1071.17 286.88 1071.17 285.569C1071.17 284.259 1070.11 283.197 1068.8 283.197C1067.49 283.197 1066.43 284.259 1066.43 285.569C1066.43 286.88 1067.49 287.942 1068.8 287.942Z" fill="white"/>
<path d="M1165.74 287.942C1167.05 287.942 1168.11 286.88 1168.11 285.569C1168.11 284.259 1167.05 283.197 1165.74 283.197C1164.43 283.197 1163.37 284.259 1163.37 285.569C1163.37 286.88 1164.43 287.942 1165.74 287.942Z" fill="white"/>
<path d="M1262.68 287.942C1263.99 287.942 1265.05 286.88 1265.05 285.569C1265.05 284.259 1263.99 283.197 1262.68 283.197C1261.37 283.197 1260.31 284.259 1260.31 285.569C1260.31 286.88 1261.37 287.942 1262.68 287.942Z" fill="white"/>
<path d="M4.72375 379.959C4.72375 380.406 4.5912 380.843 4.34284 381.215C4.09449 381.587 3.74149 381.876 3.3285 382.047C2.9155 382.218 2.46105 382.263 2.02262 382.176C1.58418 382.089 1.18146 381.873 0.865363 381.557C0.54927 381.241 0.334009 380.839 0.246799 380.4C0.159589 379.962 0.204348 379.508 0.375417 379.095C0.546486 378.682 0.836179 378.329 1.20787 378.081C1.57955 377.832 2.01654 377.7 2.46356 377.7C3.063 377.7 3.63789 377.938 4.06176 378.362C4.48563 378.785 4.72375 379.36 4.72375 379.959Z" fill="white"/>
<path d="M101.686 379.96C101.708 380.438 101.585 380.912 101.333 381.319C101.081 381.726 100.712 382.047 100.274 382.24C99.8363 382.434 99.3501 382.49 98.8795 382.402C98.4088 382.315 97.9758 382.086 97.6372 381.748C97.2987 381.409 97.0704 380.976 96.9825 380.506C96.8946 380.035 96.9511 379.549 97.1445 379.111C97.338 378.673 97.6594 378.304 98.0665 378.052C98.4737 377.8 98.9475 377.678 99.4258 377.7C100.025 377.7 100.6 377.938 101.024 378.362C101.448 378.786 101.686 379.36 101.686 379.96Z" fill="white"/>
<path d="M198.626 379.959C198.626 380.406 198.493 380.843 198.245 381.215C197.996 381.587 197.643 381.876 197.23 382.047C196.817 382.218 196.363 382.263 195.924 382.176C195.486 382.089 195.083 381.873 194.767 381.557C194.451 381.241 194.236 380.839 194.149 380.4C194.061 379.962 194.106 379.508 194.277 379.095C194.448 378.682 194.738 378.329 195.11 378.081C195.481 377.832 195.918 377.7 196.365 377.7C196.965 377.7 197.54 377.938 197.964 378.362C198.387 378.785 198.626 379.36 198.626 379.959Z" fill="white"/>
<path d="M295.588 379.96C295.611 380.433 295.491 380.902 295.244 381.307C294.997 381.712 294.635 382.034 294.204 382.231C293.773 382.428 293.292 382.491 292.825 382.413C292.357 382.334 291.924 382.118 291.581 381.791C291.237 381.464 291 381.042 290.899 380.579C290.798 380.116 290.838 379.633 291.013 379.193C291.189 378.752 291.493 378.375 291.885 378.109C292.278 377.843 292.741 377.7 293.215 377.7C293.521 377.685 293.827 377.732 294.114 377.838C294.402 377.945 294.664 378.109 294.886 378.32C295.108 378.532 295.285 378.786 295.406 379.068C295.526 379.35 295.588 379.653 295.588 379.96Z" fill="white"/>
<path d="M392.527 379.96C392.55 380.433 392.43 380.902 392.184 381.307C391.937 381.712 391.575 382.034 391.143 382.231C390.712 382.428 390.232 382.491 389.764 382.413C389.297 382.334 388.863 382.118 388.52 381.791C388.177 381.464 387.939 381.042 387.838 380.579C387.737 380.116 387.777 379.633 387.953 379.193C388.129 378.752 388.432 378.375 388.825 378.109C389.217 377.843 389.68 377.7 390.154 377.7C390.46 377.685 390.766 377.732 391.054 377.838C391.341 377.945 391.604 378.109 391.826 378.32C392.048 378.532 392.225 378.786 392.345 379.068C392.466 379.35 392.528 379.653 392.527 379.96Z" fill="white"/>
<path d="M489.467 379.959C489.467 380.406 489.335 380.843 489.086 381.215C488.838 381.587 488.485 381.876 488.072 382.047C487.659 382.218 487.204 382.263 486.766 382.176C486.328 382.089 485.925 381.873 485.609 381.557C485.293 381.241 485.077 380.839 484.99 380.4C484.903 379.962 484.948 379.508 485.119 379.095C485.29 378.682 485.58 378.329 485.951 378.081C486.323 377.832 486.76 377.7 487.207 377.7C487.806 377.7 488.381 377.938 488.805 378.362C489.229 378.785 489.467 379.36 489.467 379.959Z" fill="white"/>
<path d="M586.429 379.96C586.452 380.433 586.332 380.902 586.085 381.307C585.839 381.712 585.476 382.034 585.045 382.231C584.614 382.428 584.134 382.491 583.666 382.413C583.199 382.334 582.765 382.118 582.422 381.791C582.079 381.464 581.841 381.042 581.74 380.579C581.639 380.116 581.679 379.633 581.855 379.193C582.031 378.752 582.334 378.375 582.727 378.109C583.119 377.843 583.582 377.7 584.056 377.7C584.362 377.685 584.668 377.732 584.956 377.838C585.243 377.945 585.506 378.109 585.728 378.32C585.95 378.532 586.126 378.786 586.247 379.068C586.368 379.35 586.43 379.653 586.429 379.96V379.96Z" fill="white"/>
<path d="M683.369 379.96C683.369 380.586 683.12 381.187 682.677 381.629C682.234 382.072 681.633 382.321 681.007 382.321C680.381 382.321 679.78 382.072 679.337 381.629C678.894 381.187 678.645 380.586 678.645 379.96C678.645 379.333 678.894 378.733 679.337 378.29C679.78 377.847 680.381 377.598 681.007 377.598C681.633 377.598 682.234 377.847 682.677 378.29C683.12 378.733 683.369 379.333 683.369 379.96V379.96Z" fill="white"/>
<path d="M780.309 379.959C780.309 380.406 780.176 380.843 779.928 381.215C779.679 381.587 779.326 381.876 778.913 382.047C778.5 382.218 778.046 382.263 777.607 382.176C777.169 382.089 776.766 381.873 776.45 381.557C776.134 381.241 775.919 380.839 775.832 380.4C775.744 379.962 775.789 379.508 775.96 379.095C776.131 378.682 776.421 378.329 776.793 378.081C777.164 377.832 777.601 377.7 778.048 377.7C778.648 377.7 779.223 377.938 779.646 378.362C780.07 378.785 780.309 379.36 780.309 379.959Z" fill="white"/>
<path d="M877.339 379.96C877.361 380.433 877.241 380.902 876.995 381.307C876.748 381.712 876.386 382.034 875.955 382.231C875.523 382.428 875.043 382.491 874.576 382.413C874.108 382.334 873.675 382.118 873.331 381.791C872.988 381.464 872.751 381.042 872.649 380.579C872.548 380.116 872.588 379.633 872.764 379.193C872.94 378.752 873.244 378.375 873.636 378.109C874.028 377.843 874.491 377.7 874.965 377.7C875.272 377.685 875.578 377.732 875.865 377.838C876.152 377.945 876.415 378.109 876.637 378.32C876.859 378.532 877.036 378.786 877.156 379.068C877.277 379.35 877.339 379.653 877.339 379.96Z" fill="white"/>
<path d="M974.21 379.96C974.21 380.402 974.08 380.834 973.836 381.203C973.592 381.571 973.246 381.861 972.839 382.034C972.433 382.208 971.984 382.259 971.549 382.181C971.114 382.102 970.712 381.898 970.391 381.593C970.071 381.288 969.848 380.896 969.748 380.466C969.648 380.035 969.677 379.585 969.831 379.17C969.985 378.756 970.257 378.396 970.614 378.134C970.97 377.873 971.396 377.722 971.837 377.7C972.143 377.685 972.449 377.732 972.737 377.838C973.024 377.945 973.287 378.109 973.509 378.32C973.731 378.532 973.908 378.786 974.028 379.068C974.149 379.35 974.211 379.653 974.21 379.96Z" fill="white"/>
<path d="M1071.15 379.959C1071.15 380.406 1071.02 380.843 1070.77 381.215C1070.52 381.587 1070.17 381.876 1069.75 382.047C1069.34 382.218 1068.89 382.263 1068.45 382.176C1068.01 382.089 1067.61 381.873 1067.29 381.557C1066.98 381.241 1066.76 380.839 1066.67 380.4C1066.59 379.962 1066.63 379.508 1066.8 379.095C1066.97 378.682 1067.26 378.329 1067.63 378.081C1068.01 377.832 1068.44 377.7 1068.89 377.7C1069.49 377.7 1070.06 377.938 1070.49 378.362C1070.91 378.785 1071.15 379.36 1071.15 379.959Z" fill="white"/>
<path d="M1168.11 379.96C1168.13 380.438 1168.01 380.912 1167.76 381.319C1167.51 381.726 1167.14 382.047 1166.7 382.24C1166.26 382.434 1165.78 382.49 1165.31 382.402C1164.83 382.315 1164.4 382.086 1164.06 381.748C1163.72 381.409 1163.5 380.976 1163.41 380.506C1163.32 380.035 1163.38 379.549 1163.57 379.111C1163.76 378.673 1164.09 378.304 1164.49 378.052C1164.9 377.8 1165.37 377.678 1165.85 377.7C1166.45 377.7 1167.03 377.938 1167.45 378.362C1167.87 378.786 1168.11 379.36 1168.11 379.96Z" fill="white"/>
<path d="M1265.05 379.959C1265.05 380.406 1264.92 380.843 1264.67 381.215C1264.42 381.587 1264.07 381.876 1263.66 382.047C1263.24 382.218 1262.79 382.263 1262.35 382.176C1261.91 382.089 1261.51 381.873 1261.19 381.557C1260.88 381.241 1260.66 380.839 1260.57 380.4C1260.49 379.962 1260.53 379.508 1260.7 379.095C1260.87 378.682 1261.16 378.329 1261.54 378.081C1261.91 377.832 1262.34 377.7 1262.79 377.7C1263.39 377.7 1263.97 377.938 1264.39 378.362C1264.81 378.785 1265.05 379.36 1265.05 379.959Z" fill="white"/>
<path d="M2.3732 476.745C3.68388 476.745 4.7464 475.683 4.7464 474.373C4.7464 473.062 3.68388 472 2.3732 472C1.06252 472 0 473.062 0 474.373C0 475.683 1.06252 476.745 2.3732 476.745Z" fill="white"/>
<path d="M101.686 474.373C101.686 474.847 101.543 475.309 101.277 475.702C101.011 476.094 100.633 476.398 100.193 476.573C99.7528 476.749 99.2699 476.789 98.8068 476.688C98.3436 476.587 97.9213 476.349 97.5944 476.006C97.2674 475.663 97.0508 475.23 96.9724 474.762C96.894 474.295 96.9574 473.815 97.1545 473.383C97.3515 472.952 97.6732 472.59 98.0781 472.344C98.4829 472.097 98.9524 471.977 99.4259 472C99.7325 471.999 100.036 472.061 100.318 472.182C100.6 472.302 100.854 472.479 101.065 472.701C101.277 472.923 101.441 473.186 101.548 473.473C101.654 473.76 101.701 474.066 101.686 474.373Z" fill="white"/>
<path d="M196.252 476.745C197.563 476.745 198.626 475.683 198.626 474.373C198.626 473.062 197.563 472 196.252 472C194.942 472 193.879 473.062 193.879 474.373C193.879 475.683 194.942 476.745 196.252 476.745Z" fill="white"/>
<path d="M293.215 476.745C294.525 476.745 295.588 475.683 295.588 474.373C295.588 473.062 294.525 472 293.215 472C291.904 472 290.841 473.062 290.841 474.373C290.841 475.683 291.904 476.745 293.215 476.745Z" fill="white"/>
<path d="M392.527 474.373C392.527 474.842 392.388 475.301 392.127 475.691C391.867 476.081 391.496 476.385 391.062 476.565C390.629 476.744 390.152 476.791 389.691 476.7C389.231 476.608 388.808 476.382 388.476 476.05C388.144 475.719 387.918 475.296 387.827 474.835C387.735 474.375 387.782 473.898 387.962 473.465C388.141 473.031 388.445 472.66 388.836 472.4C389.226 472.139 389.685 472 390.154 472C390.47 471.984 390.786 472.034 391.081 472.147C391.377 472.261 391.645 472.435 391.868 472.659C392.092 472.882 392.266 473.15 392.38 473.446C392.493 473.741 392.544 474.057 392.527 474.373V474.373Z" fill="white"/>
<path d="M487.116 476.745C488.427 476.745 489.49 475.683 489.49 474.373C489.49 473.062 488.427 472 487.116 472C485.806 472 484.743 473.062 484.743 474.373C484.743 475.683 485.806 476.745 487.116 476.745Z" fill="white"/>
<path d="M586.429 474.373C586.429 474.842 586.29 475.301 586.029 475.691C585.769 476.081 585.398 476.385 584.964 476.565C584.531 476.744 584.053 476.791 583.593 476.7C583.133 476.608 582.71 476.382 582.378 476.05C582.046 475.719 581.82 475.296 581.728 474.835C581.637 474.375 581.684 473.898 581.864 473.465C582.043 473.031 582.347 472.66 582.738 472.4C583.128 472.139 583.587 472 584.056 472C584.372 471.984 584.688 472.034 584.983 472.147C585.278 472.261 585.547 472.435 585.77 472.659C585.994 472.882 586.168 473.15 586.282 473.446C586.395 473.741 586.446 474.057 586.429 474.373Z" fill="white"/>
<path d="M683.369 474.373C683.347 474.809 683.198 475.23 682.941 475.583C682.685 475.937 682.331 476.209 681.923 476.366C681.515 476.523 681.07 476.558 680.642 476.467C680.215 476.376 679.823 476.164 679.514 475.854C679.204 475.545 678.992 475.153 678.901 474.726C678.81 474.298 678.845 473.854 679.002 473.446C679.159 473.038 679.431 472.684 679.785 472.427C680.138 472.171 680.559 472.022 680.996 472C681.312 471.984 681.628 472.034 681.923 472.147C682.218 472.261 682.486 472.435 682.71 472.659C682.934 472.882 683.108 473.15 683.221 473.446C683.335 473.741 683.385 474.057 683.369 474.373Z" fill="white"/>
<path d="M777.958 476.745C779.269 476.745 780.331 475.683 780.331 474.373C780.331 473.062 779.269 472 777.958 472C776.647 472 775.585 473.062 775.585 474.373C775.585 475.683 776.647 476.745 777.958 476.745Z" fill="white"/>
<path d="M874.898 476.745C876.208 476.745 877.271 475.683 877.271 474.373C877.271 473.062 876.208 472 874.898 472C873.587 472 872.524 473.062 872.524 474.373C872.524 475.683 873.587 476.745 874.898 476.745Z" fill="white"/>
<path d="M971.837 476.745C973.148 476.745 974.21 475.683 974.21 474.373C974.21 473.062 973.148 472 971.837 472C970.526 472 969.464 473.062 969.464 474.373C969.464 475.683 970.526 476.745 971.837 476.745Z" fill="white"/>
<path d="M1068.8 476.745C1070.11 476.745 1071.17 475.683 1071.17 474.373C1071.17 473.062 1070.11 472 1068.8 472C1067.49 472 1066.43 473.062 1066.43 474.373C1066.43 475.683 1067.49 476.745 1068.8 476.745Z" fill="white"/>
<path d="M1165.74 476.745C1167.05 476.745 1168.11 475.683 1168.11 474.373C1168.11 473.062 1167.05 472 1165.74 472C1164.43 472 1163.37 473.062 1163.37 474.373C1163.37 475.683 1164.43 476.745 1165.74 476.745Z" fill="white"/>
<path d="M1262.68 476.745C1263.99 476.745 1265.05 475.683 1265.05 474.373C1265.05 473.062 1263.99 472 1262.68 472C1261.37 472 1260.31 473.062 1260.31 474.373C1260.31 475.683 1261.37 476.745 1262.68 476.745Z" fill="white"/>
<path d="M4.72375 568.763C4.72375 569.21 4.5912 569.647 4.34284 570.018C4.09449 570.39 3.74149 570.68 3.3285 570.851C2.9155 571.022 2.46105 571.066 2.02262 570.979C1.58418 570.892 1.18146 570.677 0.865363 570.361C0.54927 570.045 0.334009 569.642 0.246799 569.204C0.159589 568.765 0.204348 568.311 0.375417 567.898C0.546486 567.485 0.836179 567.132 1.20787 566.884C1.57955 566.636 2.01654 566.503 2.46356 566.503C3.063 566.503 3.63789 566.741 4.06176 567.165C4.48563 567.589 4.72375 568.164 4.72375 568.763Z" fill="white"/>
<path d="M101.686 568.763C101.708 569.241 101.585 569.715 101.333 570.122C101.081 570.529 100.712 570.85 100.274 571.044C99.8363 571.237 99.3501 571.294 98.8795 571.206C98.4088 571.118 97.9758 570.89 97.6372 570.551C97.2987 570.213 97.0704 569.78 96.9825 569.309C96.8946 568.838 96.9511 568.352 97.1445 567.914C97.338 567.477 97.6594 567.107 98.0665 566.856C98.4737 566.604 98.9475 566.481 99.4258 566.503C100.025 566.503 100.6 566.741 101.024 567.165C101.448 567.589 101.686 568.163 101.686 568.763Z" fill="white"/>
<path d="M198.626 568.763C198.626 569.389 198.377 569.99 197.934 570.433C197.491 570.875 196.89 571.124 196.264 571.124C195.637 571.124 195.037 570.875 194.594 570.433C194.151 569.99 193.902 569.389 193.902 568.763C193.902 568.137 194.151 567.536 194.594 567.093C195.037 566.65 195.637 566.401 196.264 566.401C196.89 566.401 197.491 566.65 197.934 567.093C198.377 567.536 198.626 568.137 198.626 568.763Z" fill="white"/>
<path d="M295.588 568.763C295.611 569.236 295.491 569.706 295.244 570.11C294.997 570.515 294.635 570.837 294.204 571.034C293.773 571.231 293.292 571.294 292.825 571.216C292.357 571.138 291.924 570.921 291.581 570.594C291.237 570.267 291 569.845 290.899 569.382C290.798 568.919 290.838 568.436 291.013 567.996C291.189 567.556 291.493 567.178 291.885 566.912C292.278 566.646 292.741 566.504 293.215 566.503C293.521 566.488 293.827 566.535 294.114 566.642C294.402 566.748 294.664 566.912 294.886 567.124C295.108 567.335 295.285 567.589 295.406 567.871C295.526 568.153 295.588 568.456 295.588 568.763Z" fill="white"/>
<path d="M392.527 568.763C392.55 569.236 392.43 569.706 392.184 570.11C391.937 570.515 391.575 570.837 391.143 571.034C390.712 571.231 390.232 571.294 389.764 571.216C389.297 571.138 388.863 570.921 388.52 570.594C388.177 570.267 387.939 569.845 387.838 569.382C387.737 568.919 387.777 568.436 387.953 567.996C388.129 567.556 388.432 567.178 388.825 566.912C389.217 566.646 389.68 566.504 390.154 566.503C390.46 566.488 390.766 566.535 391.054 566.642C391.341 566.748 391.604 566.912 391.826 567.124C392.048 567.335 392.225 567.589 392.345 567.871C392.466 568.153 392.528 568.456 392.527 568.763Z" fill="white"/>
<path d="M489.467 568.763C489.467 569.21 489.335 569.647 489.086 570.018C488.838 570.39 488.485 570.68 488.072 570.851C487.659 571.022 487.204 571.066 486.766 570.979C486.328 570.892 485.925 570.677 485.609 570.361C485.293 570.045 485.077 569.642 484.99 569.204C484.903 568.765 484.948 568.311 485.119 567.898C485.29 567.485 485.58 567.132 485.951 566.884C486.323 566.636 486.76 566.503 487.207 566.503C487.806 566.503 488.381 566.741 488.805 567.165C489.229 567.589 489.467 568.164 489.467 568.763Z" fill="white"/>
<path d="M586.429 568.763C586.452 569.236 586.332 569.706 586.085 570.11C585.839 570.515 585.476 570.837 585.045 571.034C584.614 571.231 584.134 571.294 583.666 571.216C583.199 571.138 582.765 570.921 582.422 570.594C582.079 570.267 581.841 569.845 581.74 569.382C581.639 568.919 581.679 568.436 581.855 567.996C582.031 567.556 582.334 567.178 582.727 566.912C583.119 566.646 583.582 566.504 584.056 566.503C584.362 566.488 584.668 566.535 584.956 566.642C585.243 566.748 585.506 566.912 585.728 567.124C585.95 567.335 586.126 567.589 586.247 567.871C586.368 568.153 586.43 568.456 586.429 568.763V568.763Z" fill="white"/>
<path d="M683.369 568.763C683.369 569.389 683.12 569.99 682.677 570.433C682.234 570.875 681.633 571.124 681.007 571.124C680.381 571.124 679.78 570.875 679.337 570.433C678.894 569.99 678.645 569.389 678.645 568.763C678.645 568.137 678.894 567.536 679.337 567.093C679.78 566.65 680.381 566.401 681.007 566.401C681.633 566.401 682.234 566.65 682.677 567.093C683.12 567.536 683.369 568.137 683.369 568.763V568.763Z" fill="white"/>
<path d="M780.309 568.763C780.309 569.21 780.176 569.647 779.928 570.018C779.679 570.39 779.326 570.68 778.913 570.851C778.5 571.022 778.046 571.066 777.607 570.979C777.169 570.892 776.766 570.677 776.45 570.361C776.134 570.045 775.919 569.642 775.832 569.204C775.744 568.765 775.789 568.311 775.96 567.898C776.131 567.485 776.421 567.132 776.793 566.884C777.164 566.636 777.601 566.503 778.048 566.503C778.648 566.503 779.223 566.741 779.646 567.165C780.07 567.589 780.309 568.164 780.309 568.763Z" fill="white"/>
<path d="M877.339 568.763C877.361 569.236 877.241 569.706 876.995 570.11C876.748 570.515 876.386 570.837 875.955 571.034C875.523 571.231 875.043 571.294 874.576 571.216C874.108 571.138 873.675 570.921 873.331 570.594C872.988 570.267 872.751 569.845 872.649 569.382C872.548 568.919 872.588 568.436 872.764 567.996C872.94 567.556 873.244 567.178 873.636 566.912C874.028 566.646 874.491 566.504 874.965 566.503C875.272 566.488 875.578 566.535 875.865 566.642C876.152 566.748 876.415 566.912 876.637 567.124C876.859 567.335 877.036 567.589 877.156 567.871C877.277 568.153 877.339 568.456 877.339 568.763Z" fill="white"/>
<path d="M974.21 568.763C974.21 569.389 973.962 569.99 973.519 570.433C973.076 570.875 972.475 571.124 971.849 571.124C971.222 571.124 970.621 570.875 970.178 570.433C969.735 569.99 969.487 569.389 969.487 568.763C969.487 568.137 969.735 567.536 970.178 567.093C970.621 566.65 971.222 566.401 971.849 566.401C972.475 566.401 973.076 566.65 973.519 567.093C973.962 567.536 974.21 568.137 974.21 568.763Z" fill="white"/>
<path d="M1071.15 568.763C1071.15 569.21 1071.02 569.647 1070.77 570.018C1070.52 570.39 1070.17 570.68 1069.75 570.851C1069.34 571.022 1068.89 571.066 1068.45 570.979C1068.01 570.892 1067.61 570.677 1067.29 570.361C1066.98 570.045 1066.76 569.642 1066.67 569.204C1066.59 568.765 1066.63 568.311 1066.8 567.898C1066.97 567.485 1067.26 567.132 1067.63 566.884C1068.01 566.636 1068.44 566.503 1068.89 566.503C1069.49 566.503 1070.06 566.741 1070.49 567.165C1070.91 567.589 1071.15 568.164 1071.15 568.763Z" fill="white"/>
<path d="M1168.11 568.763C1168.13 569.241 1168.01 569.715 1167.76 570.122C1167.51 570.529 1167.14 570.85 1166.7 571.044C1166.26 571.237 1165.78 571.294 1165.31 571.206C1164.83 571.118 1164.4 570.89 1164.06 570.551C1163.72 570.213 1163.5 569.78 1163.41 569.309C1163.32 568.838 1163.38 568.352 1163.57 567.914C1163.76 567.477 1164.09 567.107 1164.49 566.856C1164.9 566.604 1165.37 566.481 1165.85 566.503C1166.45 566.503 1167.03 566.741 1167.45 567.165C1167.87 567.589 1168.11 568.163 1168.11 568.763Z" fill="white"/>
<path d="M1265.05 568.763C1265.05 569.389 1264.8 569.99 1264.36 570.433C1263.92 570.875 1263.32 571.124 1262.69 571.124C1262.06 571.124 1261.46 570.875 1261.02 570.433C1260.58 569.99 1260.33 569.389 1260.33 568.763C1260.33 568.137 1260.58 567.536 1261.02 567.093C1261.46 566.65 1262.06 566.401 1262.69 566.401C1263.32 566.401 1263.92 566.65 1264.36 567.093C1264.8 567.536 1265.05 568.137 1265.05 568.763V568.763Z" fill="white"/>
<path d="M2.3732 665.548C3.68388 665.548 4.7464 664.486 4.7464 663.176C4.7464 661.865 3.68388 660.803 2.3732 660.803C1.06252 660.803 0 661.865 0 663.176C0 664.486 1.06252 665.548 2.3732 665.548Z" fill="white"/>
<path d="M101.686 663.176C101.686 663.65 101.543 664.113 101.277 664.505C101.011 664.897 100.633 665.201 100.193 665.377C99.7528 665.552 99.2699 665.592 98.8068 665.491C98.3436 665.39 97.9213 665.153 97.5944 664.809C97.2674 664.466 97.0508 664.033 96.9724 663.565C96.894 663.098 96.9574 662.618 97.1545 662.187C97.3515 661.756 97.6732 661.393 98.0781 661.147C98.4829 660.9 98.9524 660.78 99.4259 660.803C99.7325 660.803 100.036 660.865 100.318 660.985C100.6 661.106 100.854 661.282 101.065 661.504C101.277 661.726 101.441 661.989 101.548 662.276C101.654 662.564 101.701 662.87 101.686 663.176Z" fill="white"/>
<path d="M196.252 665.548C197.563 665.548 198.626 664.486 198.626 663.176C198.626 661.865 197.563 660.803 196.252 660.803C194.942 660.803 193.879 661.865 193.879 663.176C193.879 664.486 194.942 665.548 196.252 665.548Z" fill="white"/>
<path d="M293.215 665.548C294.525 665.548 295.588 664.486 295.588 663.176C295.588 661.865 294.525 660.803 293.215 660.803C291.904 660.803 290.841 661.865 290.841 663.176C290.841 664.486 291.904 665.548 293.215 665.548Z" fill="white"/>
<path d="M392.527 663.176C392.527 663.645 392.388 664.104 392.127 664.494C391.867 664.884 391.496 665.188 391.062 665.368C390.629 665.548 390.152 665.595 389.691 665.503C389.231 665.411 388.808 665.185 388.476 664.854C388.144 664.522 387.918 664.099 387.827 663.639C387.735 663.178 387.782 662.701 387.962 662.268C388.141 661.834 388.445 661.464 388.836 661.203C389.226 660.942 389.685 660.803 390.154 660.803C390.47 660.787 390.786 660.837 391.081 660.951C391.377 661.064 391.645 661.238 391.868 661.462C392.092 661.686 392.266 661.954 392.38 662.249C392.493 662.544 392.544 662.86 392.527 663.176V663.176Z" fill="white"/>
<path d="M487.116 665.548C488.427 665.548 489.49 664.486 489.49 663.176C489.49 661.865 488.427 660.803 487.116 660.803C485.806 660.803 484.743 661.865 484.743 663.176C484.743 664.486 485.806 665.548 487.116 665.548Z" fill="white"/>
<path d="M586.429 663.176C586.429 663.645 586.29 664.104 586.029 664.494C585.769 664.884 585.398 665.188 584.964 665.368C584.531 665.548 584.053 665.595 583.593 665.503C583.133 665.411 582.71 665.185 582.378 664.854C582.046 664.522 581.82 664.099 581.728 663.639C581.637 663.178 581.684 662.701 581.864 662.268C582.043 661.834 582.347 661.464 582.738 661.203C583.128 660.942 583.587 660.803 584.056 660.803C584.372 660.787 584.688 660.837 584.983 660.951C585.278 661.064 585.547 661.238 585.77 661.462C585.994 661.686 586.168 661.954 586.282 662.249C586.395 662.544 586.446 662.86 586.429 663.176Z" fill="white"/>
<path d="M683.369 663.176C683.347 663.612 683.198 664.033 682.941 664.387C682.685 664.74 682.331 665.012 681.923 665.169C681.515 665.326 681.07 665.361 680.642 665.27C680.215 665.18 679.823 664.967 679.514 664.658C679.204 664.349 678.992 663.957 678.901 663.529C678.81 663.102 678.845 662.657 679.002 662.249C679.159 661.841 679.431 661.487 679.785 661.231C680.138 660.974 680.559 660.825 680.996 660.803C681.312 660.787 681.628 660.837 681.923 660.951C682.218 661.064 682.486 661.238 682.71 661.462C682.934 661.686 683.108 661.954 683.221 662.249C683.335 662.544 683.385 662.86 683.369 663.176Z" fill="white"/>
<path d="M777.958 665.548C779.269 665.548 780.331 664.486 780.331 663.176C780.331 661.865 779.269 660.803 777.958 660.803C776.647 660.803 775.585 661.865 775.585 663.176C775.585 664.486 776.647 665.548 777.958 665.548Z" fill="white"/>
<path d="M874.898 665.548C876.208 665.548 877.271 664.486 877.271 663.176C877.271 661.865 876.208 660.803 874.898 660.803C873.587 660.803 872.524 661.865 872.524 663.176C872.524 664.486 873.587 665.548 874.898 665.548Z" fill="white"/>
<path d="M971.837 665.548C973.148 665.548 974.21 664.486 974.21 663.176C974.21 661.865 973.148 660.803 971.837 660.803C970.526 660.803 969.464 661.865 969.464 663.176C969.464 664.486 970.526 665.548 971.837 665.548Z" fill="white"/>
<path d="M1068.8 665.548C1070.11 665.548 1071.17 664.486 1071.17 663.176C1071.17 661.865 1070.11 660.803 1068.8 660.803C1067.49 660.803 1066.43 661.865 1066.43 663.176C1066.43 664.486 1067.49 665.548 1068.8 665.548Z" fill="white"/>
<path d="M1165.74 665.548C1167.05 665.548 1168.11 664.486 1168.11 663.176C1168.11 661.865 1167.05 660.803 1165.74 660.803C1164.43 660.803 1163.37 661.865 1163.37 663.176C1163.37 664.486 1164.43 665.548 1165.74 665.548Z" fill="white"/>
<path d="M1262.68 665.548C1263.99 665.548 1265.05 664.486 1265.05 663.176C1265.05 661.865 1263.99 660.803 1262.68 660.803C1261.37 660.803 1260.31 661.865 1260.31 663.176C1260.31 664.486 1261.37 665.548 1262.68 665.548Z" fill="white"/>
<path d="M2.3732 759.939C3.68388 759.939 4.7464 758.877 4.7464 757.566C4.7464 756.256 3.68388 755.193 2.3732 755.193C1.06252 755.193 0 756.256 0 757.566C0 758.877 1.06252 759.939 2.3732 759.939Z" fill="white"/>
<path d="M101.686 757.498C101.708 757.976 101.585 758.45 101.333 758.857C101.081 759.264 100.712 759.586 100.274 759.779C99.8363 759.972 99.3501 760.029 98.8795 759.941C98.4088 759.853 97.9758 759.625 97.6372 759.286C97.2987 758.948 97.0704 758.515 96.9825 758.044C96.8946 757.574 96.9511 757.088 97.1445 756.65C97.338 756.212 97.6594 755.843 98.0665 755.591C98.4737 755.339 98.9475 755.216 99.4258 755.238C100.025 755.238 100.6 755.477 101.024 755.9C101.448 756.324 101.686 756.899 101.686 757.498Z" fill="white"/>
<path d="M196.252 759.939C197.563 759.939 198.626 758.877 198.626 757.566C198.626 756.256 197.563 755.193 196.252 755.193C194.942 755.193 193.879 756.256 193.879 757.566C193.879 758.877 194.942 759.939 196.252 759.939Z" fill="white"/>
<path d="M293.215 759.939C294.525 759.939 295.588 758.877 295.588 757.566C295.588 756.256 294.525 755.193 293.215 755.193C291.904 755.193 290.841 756.256 290.841 757.566C290.841 758.877 291.904 759.939 293.215 759.939Z" fill="white"/>
<path d="M392.527 757.498C392.55 757.972 392.43 758.441 392.184 758.846C391.937 759.251 391.575 759.572 391.143 759.769C390.712 759.966 390.232 760.03 389.764 759.951C389.297 759.873 388.863 759.656 388.52 759.329C388.177 759.002 387.939 758.58 387.838 758.117C387.737 757.654 387.777 757.171 387.953 756.731C388.129 756.291 388.432 755.914 388.825 755.648C389.217 755.381 389.68 755.239 390.154 755.238C390.46 755.223 390.766 755.27 391.054 755.377C391.341 755.484 391.604 755.648 391.826 755.859C392.048 756.07 392.225 756.325 392.345 756.607C392.466 756.888 392.528 757.192 392.527 757.498Z" fill="white"/>
<path d="M487.116 759.939C488.427 759.939 489.49 758.877 489.49 757.566C489.49 756.256 488.427 755.193 487.116 755.193C485.806 755.193 484.743 756.256 484.743 757.566C484.743 758.877 485.806 759.939 487.116 759.939Z" fill="white"/>
<path d="M586.429 757.498C586.452 757.972 586.332 758.441 586.085 758.846C585.839 759.251 585.476 759.572 585.045 759.769C584.614 759.966 584.134 760.03 583.666 759.951C583.199 759.873 582.765 759.656 582.422 759.329C582.079 759.002 581.841 758.58 581.74 758.117C581.639 757.654 581.679 757.171 581.855 756.731C582.031 756.291 582.334 755.914 582.727 755.648C583.119 755.381 583.582 755.239 584.056 755.238C584.362 755.223 584.668 755.27 584.956 755.377C585.243 755.484 585.506 755.648 585.728 755.859C585.95 756.07 586.126 756.325 586.247 756.607C586.368 756.888 586.43 757.192 586.429 757.498V757.498Z" fill="white"/>
<path d="M683.369 757.498C683.369 758.124 683.12 758.725 682.677 759.168C682.234 759.611 681.633 759.86 681.007 759.86C680.381 759.86 679.78 759.611 679.337 759.168C678.894 758.725 678.645 758.124 678.645 757.498C678.645 756.872 678.894 756.271 679.337 755.828C679.78 755.386 680.381 755.137 681.007 755.137C681.633 755.137 682.234 755.386 682.677 755.828C683.12 756.271 683.369 756.872 683.369 757.498V757.498Z" fill="white"/>
<path d="M777.958 759.939C779.269 759.939 780.331 758.877 780.331 757.566C780.331 756.256 779.269 755.193 777.958 755.193C776.647 755.193 775.585 756.256 775.585 757.566C775.585 758.877 776.647 759.939 777.958 759.939Z" fill="white"/>
<path d="M874.898 759.939C876.208 759.939 877.271 758.877 877.271 757.566C877.271 756.256 876.208 755.193 874.898 755.193C873.587 755.193 872.524 756.256 872.524 757.566C872.524 758.877 873.587 759.939 874.898 759.939Z" fill="white"/>
<path d="M971.837 759.939C973.148 759.939 974.21 758.877 974.21 757.566C974.21 756.256 973.148 755.193 971.837 755.193C970.526 755.193 969.464 756.256 969.464 757.566C969.464 758.877 970.526 759.939 971.837 759.939Z" fill="white"/>
<path d="M1068.8 759.939C1070.11 759.939 1071.17 758.877 1071.17 757.566C1071.17 756.256 1070.11 755.193 1068.8 755.193C1067.49 755.193 1066.43 756.256 1066.43 757.566C1066.43 758.877 1067.49 759.939 1068.8 759.939Z" fill="white"/>
<path d="M1165.74 759.939C1167.05 759.939 1168.11 758.877 1168.11 757.566C1168.11 756.256 1167.05 755.193 1165.74 755.193C1164.43 755.193 1163.37 756.256 1163.37 757.566C1163.37 758.877 1164.43 759.939 1165.74 759.939Z" fill="white"/>
<path d="M1262.68 759.939C1263.99 759.939 1265.05 758.877 1265.05 757.566C1265.05 756.256 1263.99 755.193 1262.68 755.193C1261.37 755.193 1260.31 756.256 1260.31 757.566C1260.31 758.877 1261.37 759.939 1262.68 759.939Z" fill="white"/>
<path d="M2.3732 854.352C3.68388 854.352 4.7464 853.289 4.7464 851.979C4.7464 850.668 3.68388 849.606 2.3732 849.606C1.06252 849.606 0 850.668 0 851.979C0 853.289 1.06252 854.352 2.3732 854.352Z" fill="white"/>
<path d="M101.686 851.979C101.686 852.453 101.543 852.916 101.277 853.308C101.011 853.7 100.633 854.004 100.193 854.18C99.7528 854.356 99.2699 854.396 98.8068 854.294C98.3436 854.193 97.9213 853.956 97.5944 853.613C97.2674 853.269 97.0508 852.836 96.9724 852.369C96.894 851.901 96.9574 851.421 97.1545 850.99C97.3515 850.559 97.6732 850.197 98.0781 849.95C98.4829 849.703 98.9524 849.584 99.4259 849.606C99.7325 849.606 100.036 849.668 100.318 849.788C100.6 849.909 100.854 850.086 101.065 850.307C101.277 850.529 101.441 850.792 101.548 851.079C101.654 851.367 101.701 851.673 101.686 851.979Z" fill="white"/>
<path d="M196.252 854.352C197.563 854.352 198.626 853.289 198.626 851.979C198.626 850.668 197.563 849.606 196.252 849.606C194.942 849.606 193.879 850.668 193.879 851.979C193.879 853.289 194.942 854.352 196.252 854.352Z" fill="white"/>
<path d="M293.215 854.352C294.525 854.352 295.588 853.289 295.588 851.979C295.588 850.668 294.525 849.606 293.215 849.606C291.904 849.606 290.841 850.668 290.841 851.979C290.841 853.289 291.904 854.352 293.215 854.352Z" fill="white"/>
<path d="M392.527 851.979C392.527 852.448 392.388 852.907 392.127 853.297C391.867 853.687 391.496 853.991 391.062 854.171C390.629 854.351 390.152 854.398 389.691 854.306C389.231 854.215 388.808 853.989 388.476 853.657C388.144 853.325 387.918 852.902 387.827 852.442C387.735 851.982 387.782 851.505 387.962 851.071C388.141 850.637 388.445 850.267 388.836 850.006C389.226 849.745 389.685 849.606 390.154 849.606C390.47 849.59 390.786 849.64 391.081 849.754C391.377 849.867 391.645 850.041 391.868 850.265C392.092 850.489 392.266 850.757 392.38 851.052C392.493 851.347 392.544 851.663 392.527 851.979Z" fill="white"/>
<path d="M487.116 854.352C488.427 854.352 489.49 853.289 489.49 851.979C489.49 850.668 488.427 849.606 487.116 849.606C485.806 849.606 484.743 850.668 484.743 851.979C484.743 853.289 485.806 854.352 487.116 854.352Z" fill="white"/>
<path d="M586.429 851.979C586.429 852.448 586.29 852.907 586.029 853.297C585.769 853.687 585.398 853.991 584.964 854.171C584.531 854.351 584.053 854.398 583.593 854.306C583.133 854.215 582.71 853.989 582.378 853.657C582.046 853.325 581.82 852.902 581.728 852.442C581.637 851.982 581.684 851.505 581.864 851.071C582.043 850.637 582.347 850.267 582.738 850.006C583.128 849.745 583.587 849.606 584.056 849.606C584.372 849.59 584.688 849.64 584.983 849.754C585.278 849.867 585.547 850.041 585.77 850.265C585.994 850.489 586.168 850.757 586.282 851.052C586.395 851.347 586.446 851.663 586.429 851.979Z" fill="white"/>
<path d="M683.369 851.979C683.347 852.415 683.198 852.836 682.941 853.19C682.685 853.544 682.331 853.815 681.923 853.972C681.515 854.129 681.07 854.164 680.642 854.074C680.215 853.983 679.823 853.77 679.514 853.461C679.204 853.152 678.992 852.76 678.901 852.332C678.81 851.905 678.845 851.46 679.002 851.052C679.159 850.644 679.431 850.29 679.785 850.034C680.138 849.777 680.559 849.629 680.996 849.606C681.312 849.59 681.628 849.64 681.923 849.754C682.218 849.867 682.486 850.041 682.71 850.265C682.934 850.489 683.108 850.757 683.221 851.052C683.335 851.347 683.385 851.663 683.369 851.979Z" fill="white"/>
<path d="M777.958 854.352C779.269 854.352 780.331 853.289 780.331 851.979C780.331 850.668 779.269 849.606 777.958 849.606C776.647 849.606 775.585 850.668 775.585 851.979C775.585 853.289 776.647 854.352 777.958 854.352Z" fill="white"/>
<path d="M874.898 854.352C876.208 854.352 877.271 853.289 877.271 851.979C877.271 850.668 876.208 849.606 874.898 849.606C873.587 849.606 872.524 850.668 872.524 851.979C872.524 853.289 873.587 854.352 874.898 854.352Z" fill="white"/>
<path d="M971.837 854.352C973.148 854.352 974.21 853.289 974.21 851.979C974.21 850.668 973.148 849.606 971.837 849.606C970.526 849.606 969.464 850.668 969.464 851.979C969.464 853.289 970.526 854.352 971.837 854.352Z" fill="white"/>
<path d="M1068.8 854.352C1070.11 854.352 1071.17 853.289 1071.17 851.979C1071.17 850.668 1070.11 849.606 1068.8 849.606C1067.49 849.606 1066.43 850.668 1066.43 851.979C1066.43 853.289 1067.49 854.352 1068.8 854.352Z" fill="white"/>
<path d="M1165.74 854.352C1167.05 854.352 1168.11 853.289 1168.11 851.979C1168.11 850.668 1167.05 849.606 1165.74 849.606C1164.43 849.606 1163.37 850.668 1163.37 851.979C1163.37 853.289 1164.43 854.352 1165.74 854.352Z" fill="white"/>
<path d="M1262.68 854.352C1263.99 854.352 1265.05 853.289 1265.05 851.979C1265.05 850.668 1263.99 849.606 1262.68 849.606C1261.37 849.606 1260.31 850.668 1260.31 851.979C1260.31 853.289 1261.37 854.352 1262.68 854.352Z" fill="white"/>
</g>
</svg>
